<svg xmlns="http://www.w3.org/2000/svg" xml:space="preserve" width="1500" height="1500" stroke="#000" data-id="lg_I3ZGvWy2IVdSzCXZiR" data-version="1"><path fill="#fff" stroke="transparent" d="M0 0h1500v1500H0z"/><g data-padding="20"><path fill="#3f3f3f" stroke="null" stroke-width="1.783" d="M353.767 1114.07h-36.806V959.906l13.927 26.375h-62.271v-32.206h133.406v32.206H339.75l14.016-26.375Zm105.909 0H423.44V954.075h61.38q19.526 0 33.044 4.316 13.517 4.333 20.525 14.426t7.008 27.48q0 13.803-5.439 24.805t-17.44 17.387q-12.002 6.402-31.421 6.402l14.248-13.463 21.774 32.08q5.046 7.401 10.77 15.89 5.725 8.47 11.164 16.477 5.439 8.024 9.594 14.195h-41.853q-6.064-9.416-11.663-18.065-5.617-8.63-10.896-16.816l-25.91-40.855 21.88 16.727H453.06v-26.374h26.713q8.97 0 15.086-2.176 6.117-2.193 9.256-7.472t3.138-14.462q0-6.848-2.015-11.056t-5.439-6.563-7.632-3.138-8.47-.785h-50.271l26.25-23.129Zm157.426 0h-37.698V954.075h37.698Zm58.117 0h-37.02q4.261-12.893 8.916-27.142t8.809-27.052l18.064-54.853q4.815-14.926 8.738-26.874 3.941-11.948 7.865-24.074h47.577q4.03 12.572 7.9 24.466t8.702 26.482L772.603 1060q4.387 13.232 8.916 27.266 4.548 14.017 8.703 26.803h-38.144q-3.603-12.786-7.401-26.197-3.816-13.41-7.294-25.411l-22.005-77.073h-2.693l-22.201 76.288q-3.603 12.447-7.58 26.09-3.976 13.624-7.685 26.303Zm80.104-33.437h-78.535l3.923-27.587h71.473Zm163.026 33.437H810.533V954.075h36.914v154.056l-12.787-26.25h83.69Zm100.986-56.423h-35.237l-32.99-62.735q-5.386-10.2-10.254-19.51-4.886-9.326-11.288-21.327h41.96q4.155 9.309 7.08 15.996 2.906 6.67 5.546 12.625 2.639 5.939 5.777 13.125l10.325 23.325h3.032l10.218-22.647q3.477-7.525 6.224-13.696t5.777-12.91q3.032-6.723 7.17-15.818h40.729q-5.385 10.325-10.77 20.597-5.386 10.254-10.433 20.133Zm.999 56.423h-37.02v-87.505h37.02Zm104.464 0h-40.962q5.956-11.11 12.126-22.72l12.786-24.055 21.435-40.177v8.648l-18.849-33.097-13.232-23.058q-6.74-11.733-14.587-25.536h41.96q4.94 9.434 9.648 18.403t8.97 17.173l11.002 20.971h2.8l10.54-21.096 8.648-17.262 9.095-18.189h40.605q-7.062 13.25-13.625 25.251t-11.947 22.095l-20.65 38.162v-9.88l21.095 35.113q7.847 12.91 14.98 24.751l14.747 24.503h-43.53q-4.939-9.077-9.308-17.155-4.387-8.079-8.524-15.497l-13.356-24.68h-2.8l-12.465 24.805q-4.03 7.74-8.025 15.639-3.977 7.918-8.577 16.888Z" font-family="Commissioner" font-size="125.835"/><path fill="#3f3f3f" stroke="null" stroke-width="1.783" d="M355.087 1220.994q-2.336 0-4.19-.767-1.873-.749-3.175-2.122-1.32-1.373-2.015-3.227t-.695-4.049q0-2.978 1.23-5.26 1.23-2.3 3.406-3.602 2.176-1.284 5.065-1.284.98 0 1.908.125.91.142 1.747.374.82.232 1.534.517.695.268 1.213.553l-.232 2.407q-1.07-.642-2.087-1.034t-1.98-.57q-.98-.179-1.89-.179-2.121 0-3.78.963t-2.603 2.746q-.946 1.801-.946 4.262 0 1.64.5 3.085.481 1.445 1.462 2.55.963 1.106 2.407 1.73t3.353.624q.713 0 1.409-.089t1.39-.285 1.356-.517q.678-.321 1.32-.767l.196 2.372q-.589.374-1.284.642-.696.285-1.463.463-.766.16-1.551.25-.802.09-1.605.09Zm22.255-.303h-12.286v-19.652h2.496v19.26l-.927-1.837h10.717Zm6.081 0h-2.55v-19.652h2.55Zm7.49 0h-2.372v-19.652h2.247q1.765 2.48 3.388 4.78t3.21 4.529l4.262 6.01h.196v-15.319h2.372v19.652h-2.211q-1.462-2.069-3.067-4.351-1.623-2.283-3.55-5.011l-4.279-6.045h-.196Zm20.989 0h-2.532v-19.652h2.532Zm14.016.303q-2.318 0-4.19-.767-1.873-.749-3.175-2.122-1.32-1.373-2.015-3.227t-.695-4.049q0-2.978 1.23-5.26 1.23-2.3 3.406-3.602 2.176-1.284 5.065-1.284.98 0 1.908.125.927.142 1.748.374.838.232 1.533.517.696.268 1.213.553l-.214 2.407q-1.088-.642-2.104-1.034-1-.392-1.98-.57-.963-.179-1.89-.179-2.122 0-3.78.963-1.641.963-2.586 2.746-.945 1.801-.945 4.262 0 1.64.481 3.085.5 1.445 1.462 2.55.981 1.106 2.408 1.73 1.444.624 3.352.624.714 0 1.409-.089.713-.089 1.39-.285.696-.196 1.356-.517.678-.321 1.32-.767l.196 2.372q-.57.374-1.284.642-.695.285-1.444.463-.767.16-1.57.25t-1.605.09Zm10.771-.303h-2.532q.589-1.587 1.213-3.335.624-1.765 1.212-3.334l2.426-6.741 1.194-3.3q.535-1.462 1.07-2.942h3.281l1.053 2.978q.535 1.445 1.177 3.264l2.425 6.776q.588 1.623 1.195 3.335t1.177 3.299h-2.586q-.606-1.73-1.23-3.549-.625-1.837-1.178-3.441l-3.584-10.415h-.232l-3.602 10.308q-.588 1.694-1.23 3.53Zm11.467-4.94h-10.361l.232-1.961h9.95Zm19.027 4.94h-12.269v-19.652h2.497v19.26l-.945-1.837h10.717Zm16.317 0h-2.497v-19.295l1 1.855h-7.722v-2.212h15.942v2.212H482.5l.999-1.855Zm12.572 0h-2.443v-19.652h6.652q2.246 0 3.727.518 1.497.534 2.246 1.711t.75 3.085q0 1.605-.625 2.943t-2.086 2.14q-1.462.82-3.959.82l.802-1.088 3.086 3.87 1.551 1.926q.802 1.016 1.587 1.997.767.963 1.373 1.73h-2.924q-.981-1.248-1.873-2.407-.91-1.16-1.783-2.265l-3.53-4.548 1.533 1.23h-4.512v-2.05h3.727q1.73 0 2.853-.392 1.106-.41 1.659-1.302.553-.874.553-2.354 0-1.23-.393-1.944t-1.034-1.034q-.642-.339-1.391-.428-.731-.089-1.427-.089h-5.795l1.676-1.712Zm18.6 0h-2.533v-19.652h2.532Zm5.92 0h-2.532q.588-1.587 1.212-3.335.624-1.765 1.195-3.334l2.443-6.741q.642-1.82 1.195-3.3.535-1.462 1.07-2.942h3.281l1.052 2.978q.535 1.445 1.177 3.264l2.425 6.776q.571 1.623 1.195 3.335.607 1.712 1.177 3.299h-2.586q-.606-1.73-1.23-3.549-.624-1.837-1.177-3.441l-3.584-10.415h-.232l-3.602 10.308q-.607 1.694-1.23 3.53Zm11.448-4.94h-10.342l.214-1.961h9.95Zm19.046 4.94h-12.27v-19.652h2.497v19.26l-.945-1.837h10.718Zm8.773 0v-19.652h6.92q2.264 0 4.03.642 1.765.66 2.96 1.926 1.212 1.249 1.837 3.067.624 1.802.624 4.102 0 2.086-.553 3.87-.535 1.8-1.748 3.156-1.212 1.373-3.156 2.122-1.944.767-4.744.767Zm2.497-2.086h3.691q2.8 0 4.476-1.035 1.659-1.016 2.39-2.8t.731-4.03q0-1.73-.428-3.138-.446-1.409-1.32-2.408-.891-.998-2.282-1.551-1.391-.535-3.264-.535h-3.994Zm18.6 2.086h-2.533q.589-1.587 1.213-3.335.624-1.765 1.195-3.334l2.443-6.741q.642-1.82 1.194-3.3.535-1.462 1.07-2.942h3.282l1.052 2.978q.535 1.445 1.177 3.264l2.425 6.776q.57 1.623 1.195 3.335.606 1.712 1.177 3.299h-2.586q-.606-1.73-1.23-3.549-.625-1.837-1.177-3.441l-3.585-10.415h-.232l-3.602 10.308q-.606 1.694-1.23 3.53Zm11.448-4.94h-10.343l.232-1.961h9.933Zm14.302 4.94h-2.479v-19.295l.98 1.855h-7.72v-2.212h15.96v2.212h-7.74l.999-1.855Zm10.913 0h-2.514q.57-1.587 1.213-3.335.624-1.765 1.194-3.334l2.443-6.741q.642-1.82 1.177-3.3.553-1.462 1.088-2.942h3.281l1.052 2.978q.518 1.445 1.177 3.264l2.426 6.776q.57 1.623 1.194 3.335.607 1.712 1.177 3.299h-2.603q-.589-1.73-1.213-3.549-.624-1.837-1.177-3.441l-3.584-10.415h-.232l-3.602 10.308q-.606 1.694-1.23 3.53-.643 1.837-1.267 3.567Zm11.467-4.94h-10.343l.214-1.961h9.95Zm13.73 4.94h-2.389q.196-1.605.393-3.156l.428-3.406.802-6.474q.232-1.8.428-3.352.178-1.57.41-3.264h2.497q.856 2.087 1.658 4.03l1.587 3.888 3.121 7.632h.178l3.085-7.614 1.588-3.888q.784-1.926 1.622-4.048h2.497q.214 1.677.392 3.228.196 1.57.428 3.388l.803 6.545q.214 1.783.41 3.317t.392 3.174h-2.39l-.606-4.975q-.285-2.372-.535-4.405l-.713-5.867h-.178l-2.497 6.33-1.819 4.601q-.91 2.3-1.694 4.316h-1.694q-.5-1.266-1.106-2.764t-1.248-3.067l-1.248-3.05-2.586-6.366h-.178l-.714 5.85-.535 4.422q-.267 2.354-.588 4.975Zm25.484 0h-2.515q.571-1.587 1.213-3.335.624-1.765 1.195-3.334l2.443-6.741q.642-1.82 1.177-3.3.535-1.462 1.088-2.942h3.28l1.053 2.978q.517 1.445 1.177 3.264l2.425 6.776q.57 1.623 1.195 3.335.606 1.712 1.177 3.299h-2.604q-.588-1.73-1.212-3.549-.625-1.837-1.177-3.441l-3.585-10.415h-.232l-3.62 10.308q-.588 1.694-1.212 3.53-.642 1.837-1.266 3.567Zm11.466-4.94h-10.343l.214-1.961h9.95Zm9.13 4.94h-2.353v-19.652h2.246q1.748 2.48 3.389 4.78 1.622 2.3 3.21 4.529l4.244 6.01h.214v-15.319h2.371v19.652h-2.229q-1.444-2.069-3.067-4.351-1.605-2.283-3.53-5.011l-4.298-6.045h-.197Zm19.206 0h-2.532q.588-1.587 1.213-3.335.624-1.765 1.212-3.334l2.425-6.741 1.195-3.3q.535-1.462 1.07-2.942h3.281l1.053 2.978q.534 1.445 1.176 3.264l2.426 6.776q.588 1.623 1.195 3.335t1.176 3.299h-2.585q-.589-1.73-1.23-3.549-.625-1.837-1.178-3.441l-3.584-10.415h-.232l-3.602 10.308q-.589 1.694-1.23 3.53-.625 1.837-1.249 3.567Zm11.467-4.94h-10.361l.232-1.961h9.95Zm16.067 5.225q-2.568 0-4.512-.767-1.961-.766-3.281-2.14-1.32-1.39-1.997-3.227-.696-1.855-.696-4.03 0-2.96 1.23-5.243 1.213-2.3 3.442-3.602 2.23-1.284 5.243-1.284 1.034 0 1.997.125.981.142 1.837.392.856.232 1.587.517.731.267 1.249.535l-.214 2.407q-1.16-.642-2.23-1.034t-2.086-.57q-1.034-.179-1.997-.179-1.64 0-2.996.535-1.373.535-2.39 1.57-.998 1.034-1.551 2.514-.535 1.48-.535 3.334 0 1.677.481 3.139.464 1.462 1.445 2.568.998 1.106 2.514 1.712 1.534.624 3.638.624.767 0 1.534-.09.767-.07 1.533-.249.75-.16 1.48-.428t1.41-.642l.285 2.336q-.464.214-1.16.428t-1.551.375q-.856.178-1.801.267-.945.107-1.908.107Zm6.42-1.177-2.354.036v-9.023h2.354Zm16.709.892h-12.233v-19.652h12.197v2.122h-11.145l1.39-1.765v18.92l-1.248-1.765h11.039Zm-6.527-8.916h-3.816v-2.087h9.754v2.087Zm12.322 8.916h-2.371q.178-1.605.392-3.156.196-1.57.41-3.406l.82-6.474q.214-1.8.41-3.352l.41-3.264h2.515q.856 2.087 1.64 4.03l1.588 3.888 3.12 7.632h.197l3.085-7.614q.784-1.962 1.569-3.888t1.623-4.048h2.514q.196 1.677.392 3.228.179 1.57.41 3.388l.803 6.545q.214 1.783.41 3.317t.393 3.174h-2.39l-.606-4.975q-.286-2.372-.535-4.405l-.714-5.867h-.178l-2.496 6.33-1.82 4.601q-.909 2.3-1.694 4.316h-1.694q-.499-1.266-1.105-2.764t-1.249-3.067l-1.248-3.05-2.568-6.366h-.178l-.713 5.85-.535 4.422Zm36.95 0h-12.234v-19.652h12.198v2.122h-11.145l1.373-1.765v18.92l-1.23-1.765h11.038Zm-6.545-8.916h-3.798v-2.087h9.754v2.087Zm13.036 8.916h-2.372v-19.652h2.247q1.765 2.48 3.388 4.78t3.21 4.529l4.262 6.01h.196v-15.319h2.372v19.652h-2.211q-1.463-2.069-3.085-4.351-1.605-2.283-3.531-5.011l-4.298-6.045h-.178Zm25.946 0h-2.496v-19.295l.98 1.855h-7.721v-2.212h15.96v2.212h-7.74l1.017-1.855Zm22.915.303q-2.728 0-4.458-.945-1.712-.945-2.514-2.675-.803-1.712-.803-3.994v-12.34h2.479v12.09q0 1.783.517 3.067.535 1.266 1.694 1.962 1.16.677 3.085.677 1.944 0 3.103-.677 1.141-.696 1.658-1.962.5-1.284.5-3.085v-12.073h2.496v12.34q0 2.283-.82 3.995-.82 1.73-2.514 2.675-1.712.945-4.423.945Zm18.314 0q-1.23 0-2.46-.232-1.249-.232-2.319-.57-1.052-.34-1.694-.678l.232-2.354q.927.5 1.926.892.998.374 2.033.57 1.052.214 2.14.214 1.212 0 2.21-.338.982-.34 1.552-1.07.57-.75.57-1.944 0-1.052-.588-1.73t-1.711-1.177-2.729-.98q-1.872-.607-3.192-1.285-1.32-.695-2.015-1.712t-.695-2.585q0-1.516.713-2.729.731-1.212 2.158-1.908t3.548-.695q.892 0 1.748.125t1.658.32q.785.215 1.427.482t1.106.535l-.25 2.372q-.838-.57-1.783-.945-.928-.375-1.855-.553-.927-.196-1.712-.196-1.123 0-2.05.338-.946.321-1.516 1-.571.695-.571 1.765 0 .945.481 1.551.482.624 1.534 1.106 1.034.499 2.675 1.016 2.372.749 3.727 1.516t1.926 1.765q.57 1.017.57 2.461 0 1.623-.713 2.889-.695 1.266-2.211 2.015-1.498.75-3.87.75Zm13.036-.303h-2.532v-19.652h2.532Zm7.49 0h-2.354v-19.652h2.247q1.747 2.48 3.388 4.78 1.623 2.3 3.21 4.529l4.244 6.01h.214v-15.319h2.372v19.652h-2.23q-1.444-2.069-3.067-4.351-1.605-2.283-3.53-5.011l-4.298-6.045h-.196Zm27.712.285q-2.55 0-4.512-.767-1.944-.766-3.263-2.14-1.32-1.39-2.016-3.227-.677-1.855-.677-4.03 0-2.96 1.212-5.243 1.23-2.3 3.46-3.602 2.211-1.284 5.243-1.284 1.034 0 1.997.125.98.142 1.837.392.856.232 1.587.517.713.267 1.248.535l-.232 2.407q-1.14-.642-2.21-1.034t-2.105-.57q-1.017-.179-1.98-.179-1.64 0-3.013.535t-2.372 1.57-1.551 2.514q-.535 1.48-.535 3.334 0 1.677.463 3.139.482 1.462 1.462 2.568t2.515 1.712q1.533.624 3.62.624.785 0 1.551-.09.767-.07 1.516-.249.75-.16 1.48-.428t1.427-.642l.285 2.336q-.463.214-1.159.428t-1.551.375q-.856.178-1.801.267-.946.107-1.926.107Zm6.437-1.177-2.354.036v-9.023h2.354Zm19.045 1.177q-2.567 0-4.511-.767t-3.281-2.14q-1.32-1.39-1.998-3.227-.677-1.855-.677-4.03 0-2.96 1.212-5.243 1.23-2.3 3.442-3.602 2.23-1.284 5.243-1.284 1.034 0 2.015.125.963.142 1.837.392.856.232 1.569.517.731.267 1.248.535l-.214 2.407q-1.141-.642-2.211-1.034-1.088-.392-2.104-.57t-1.98-.179q-1.64 0-3.013.535t-2.372 1.57q-1.017 1.034-1.552 2.514-.552 1.48-.552 3.334 0 1.677.481 3.139t1.462 2.568 2.515 1.712q1.533.624 3.62.624.767 0 1.551-.09.767-.07 1.516-.249.749-.16 1.48-.428t1.427-.642l.285 2.336q-.464.214-1.16.428t-1.55.375q-.857.178-1.802.267-.945.107-1.926.107Zm6.438-1.177-2.354.036v-9.023h2.354Zm16.691.892h-12.233v-19.652h12.216v2.122h-11.146l1.373-1.765v18.92l-1.248-1.765h11.038Zm-6.526-8.916H961.7v-2.087h9.755v2.087Zm13.017 8.916h-2.371v-19.652h2.247q1.765 2.48 3.388 4.78 1.64 2.3 3.21 4.529l4.262 6.01h.214v-15.319h2.371v19.652h-2.229q-1.462-2.069-3.067-4.351t-3.549-5.011l-4.28-6.045h-.196Zm30.655 0h-12.233v-19.652h12.197v2.122H997.99l1.373-1.765v18.92l-1.23-1.765h11.038Zm-6.545-8.916h-3.798v-2.087h9.754v2.087Zm13.09 8.916h-2.426v-19.652h6.634q2.247 0 3.745.518 1.498.534 2.247 1.711t.749 3.085q0 1.605-.625 2.943t-2.086 2.14q-1.462.82-3.959.82l.785-1.088 3.103 3.87q.73.91 1.533 1.926.82 1.016 1.587 1.997.785.963 1.391 1.73h-2.924l-1.89-2.407q-.892-1.16-1.784-2.265l-3.53-4.548 1.533 1.23h-4.512v-2.05h3.745q1.712 0 2.836-.392 1.123-.41 1.676-1.302.535-.874.535-2.354 0-1.23-.392-1.944t-1.035-1.034q-.624-.339-1.373-.428t-1.444-.089h-5.778l1.658-1.712Zm16.816 0h-2.515q.57-1.587 1.195-3.335.624-1.765 1.213-3.334l2.443-6.741q.642-1.82 1.177-3.3.535-1.462 1.07-2.942h3.28q.536 1.516 1.07 2.978.518 1.445 1.16 3.264l2.425 6.776q.589 1.623 1.195 3.335.624 1.712 1.177 3.299h-2.586q-.588-1.73-1.213-3.549-.624-1.837-1.176-3.441l-3.585-10.415h-.232l-3.62 10.308q-.588 1.694-1.23 3.53-.624 1.837-1.248 3.567Zm11.466-4.94h-10.343l.214-1.961h9.95Zm14.302 4.94h-2.497v-19.295l.999 1.855h-7.74v-2.212h15.96v2.212h-7.72l.998-1.855Zm12.697 0h-2.533v-19.652h2.533Zm13.766 0h-3.406q-.517-1.48-1.123-3.156-.589-1.659-1.106-3.085l-2.193-6.153q-.375-1.07-.82-2.3l-.91-2.515q-.446-1.284-.874-2.443h2.764q.714 2.105 1.534 4.494.838 2.408 1.551 4.512l2.764 8.06h.232l2.8-8.096q.731-2.158 1.534-4.476.802-2.3 1.551-4.494h2.675q-.428 1.177-.874 2.443t-.891 2.497q-.428 1.23-.803 2.283l-2.211 6.205q-.5 1.427-1.088 3.068-.57 1.64-1.106 3.156Zm22.523 0h-12.233v-19.652h12.197v2.122h-11.145l1.373-1.765v18.92l-1.23-1.765h11.038Zm-6.527-8.916h-3.816v-2.087h9.755v2.087Zm16.71 8.916h-2.533q.589-1.587 1.213-3.335.624-1.765 1.212-3.334l2.426-6.741 1.194-3.3q.535-1.462 1.07-2.942h3.282q.535 1.516 1.07 2.978.517 1.445 1.159 3.264l2.425 6.776q.588 1.623 1.195 3.335t1.177 3.299h-2.586q-.589-1.73-1.23-3.549-.625-1.837-1.177-3.441l-3.567-10.415h-.25l-3.602 10.308q-.588 1.694-1.23 3.53-.624 1.837-1.249 3.567Zm11.466-4.94h-10.36l.23-1.961h9.952Zm9.344 4.94h-2.55v-19.652h2.55Z" font-family="Commissioner" font-size="15.453"/><path fill="#333" stroke="none" d="M738.764 800.687c-46.352 0-92.704-.133-139.057.134-6.67.033-10.437-2.068-13.772-7.97-46.186-81.867-92.538-163.668-139.09-245.335-3.202-5.635-2.902-9.804.2-15.206 46.819-81.834 93.504-163.767 139.99-245.801 3.202-5.636 6.87-7.503 13.206-7.503q139.457.25 278.914 0c6.236 0 9.871 1.734 13.106 7.47a46998 46998 0 0 0 138.157 243c4.401 7.67 4.368 13.438 0 21.108a43611 43611 0 0 0-136.69 240.032c-4.235 7.503-8.904 10.338-17.607 10.238-45.786-.434-91.571-.2-137.39-.2Zm-95.94-412.603v324.934C734.93 660.73 825.6 609.242 917.805 556.887a2054920 2054920 0 0 1-274.98-168.803m9.572-11.505c90.203 55.356 178.606 109.612 269.01 165.102-.967-7.303-1.4-12.172-2.267-16.94-12.672-70.696-25.41-141.359-38.05-212.055-1.767-9.904-1.834-10.137-11.738-6.902a339554 339554 0 0 0-170.937 55.556c-14.672 4.768-29.278 9.67-46.052 15.206Zm-26.211 330.136v-314.63C572.963 443.24 521.242 492.962 468.72 543.449c52.288 54.222 103.976 107.844 157.465 163.3Zm29.245 16.54c3.168 1.2 4.635 1.934 6.136 2.301 66.994 16.674 134.022 33.38 201.05 49.987 10.804 2.668 10.77 2.468 13.271-8.203 14.34-61.559 28.746-123.117 43.051-184.676.634-2.734.834-5.569 1.534-10.404-89.07 50.72-176.172 100.374-265.075 150.995Zm-49.554-428.91c1.468 3.802 2.335 6.403 3.468 8.838 8.404 18.107 17.24 36.014 25.077 54.355 2.968 6.936 6.37 7.27 12.672 5.202 62.16-20.375 124.418-40.516 186.61-60.758 6.236-2.034 12.406-4.335 18.575-6.503-.134-.366-.3-.767-.434-1.133Zm296.489 40.117c-.634.267-1.3.534-1.934.834 1.5 8.403 3.034 16.84 4.502 25.243 10.704 60.292 21.475 120.55 32.013 180.875 1 5.769 2.834 7.37 8.737 5.902 13.439-3.301 27.111-5.802 40.617-8.803 8.836-1.968 17.607-4.235 27.744-6.67a531702 531702 0 0 0-111.712-197.381ZM474.089 514.67l1.2 1.1c.867-.567 1.868-1.034 2.635-1.767 47.753-45.653 95.439-91.338 143.259-136.89 3.835-3.635 3.534-6.636 1.534-10.905-8.537-18.04-16.774-36.248-25.21-54.355-.934-2.034-2.402-3.802-4.37-6.87-40.216 70.863-79.632 140.258-119.048 209.687m541.156 31.78c-25.944 5.535-49.254 10.337-72.363 15.772-2.468.567-5.202 4.702-5.903 7.637-14.572 61.158-28.912 122.417-43.218 183.642-.433 1.868-.466 3.835-.7 5.77.467.1.934.233 1.4.333 39.85-70.296 79.667-140.558 120.817-213.155ZM837.438 785.88l.2-1c-1.7-.667-3.334-1.501-5.102-1.934-61.825-15.574-123.684-31.047-185.476-46.72-6.17-1.567-10.404-.867-13.606 5.37-3.801 7.369-8.603 14.238-12.872 21.341-4.335 7.237-8.57 14.54-13.505 22.91h230.361Zm-242.933-8.27c9.004-15.073 16.507-28.612 25.044-41.45 4.535-6.837 4.035-11.005-1.701-16.907-41.817-42.818-83.268-86.002-124.851-129.02-1.768-1.834-3.735-3.468-5.603-5.169-.467.4-.933.767-1.4 1.167a471629 471629 0 0 1 108.511 191.412Z" vector-effect="non-scaling-stroke"/><path fill="transparent" stroke="transparent" stroke-width="1.852" d="M250 261.111h1000v977.778H250z"/></g></svg>