<svg xmlns="http://www.w3.org/2000/svg" xml:space="preserve" width="1500" height="528" data-id="lg_I3ZGvWy2IVdSzCXZiR" data-version="1"><g data-padding="20"><path fill="#1b4571" stroke="null" stroke-width=".963" d="M536.034 460.597H516.16V377.35l7.52 14.242h-33.626v-17.39h72.04v17.39h-33.627l7.568-14.242Zm57.19 0h-19.567V374.2h33.146q10.544 0 17.843 2.33 7.3 2.34 11.084 7.791t3.784 14.84q0 7.453-2.937 13.394t-9.417 9.389q-6.481 3.457-16.968 3.457l7.694-7.27 11.758 17.323q2.725 3.997 5.816 8.58 3.091 4.574 6.029 8.898 2.937 4.333 5.18 7.665h-22.6q-3.275-5.084-6.298-9.754-3.034-4.661-5.884-9.081L597.895 419.7l11.816 9.033h-20.059V414.49h14.425q4.844 0 8.147-1.175 3.303-1.185 4.998-4.035t1.695-7.81q0-3.697-1.088-5.97t-2.938-3.544-4.121-1.694-4.574-.424H579.05l14.175-12.49Zm85.011 0h-20.357V374.2h20.357Zm31.383 0h-19.991q2.302-6.962 4.815-14.656t4.757-14.608l9.755-29.62q2.6-8.06 4.718-14.513 2.128-6.452 4.247-13h25.692q2.176 6.79 4.266 13.212t4.699 14.3l9.63 29.688q2.368 7.145 4.814 14.724 2.456 7.569 4.7 14.473h-20.598q-1.945-6.904-3.996-14.146-2.061-7.241-3.939-13.722l-11.883-41.62h-1.454l-11.989 41.196q-1.945 6.722-4.092 14.089-2.148 7.357-4.15 14.203Zm43.256-18.055h-42.408l2.118-14.897h38.596Zm88.035 18.055h-58.221V374.2h19.933v83.19l-6.904-14.174h45.192Zm54.532-30.468h-19.028l-17.815-33.877q-2.908-5.508-5.537-10.535-2.638-5.036-6.095-11.517h22.658q2.244 5.027 3.823 8.638 1.57 3.602 2.995 6.818 1.425 3.207 3.12 7.087l5.575 12.596h1.637l5.518-12.23q1.878-4.064 3.361-7.395t3.12-6.972q1.637-3.63 3.871-8.542h21.994q-2.908 5.576-5.816 11.123-2.908 5.537-5.633 10.871Zm.54 30.468h-19.992v-47.252h19.991Zm56.41 0h-22.12q3.217-5.999 6.549-12.268l6.904-12.99 11.575-21.696v4.67l-10.179-17.872-7.145-12.451q-3.64-6.336-7.877-13.79h22.659q2.667 5.094 5.21 9.938t4.843 9.273l5.941 11.325h1.512l5.691-11.392 4.67-9.321 4.912-9.823h21.927q-3.814 7.155-7.357 13.636t-6.452 11.93l-11.151 20.608v-5.334L993.894 434q4.237 6.972 8.09 13.366l7.963 13.231h-23.506q-2.667-4.901-5.027-9.263-2.368-4.363-4.603-8.369l-7.212-13.327h-1.512l-6.731 13.395q-2.176 4.18-4.333 8.445-2.148 4.276-4.632 9.12Z" font-family="Commissioner" font-size="125.835"/><path fill="#1b4571" stroke="null" stroke-width=".963" d="M536.747 518.337q-1.261 0-2.263-.414-1.011-.405-1.714-1.146-.713-.742-1.088-1.743t-.376-2.186q0-1.608.665-2.841.664-1.242 1.839-1.945 1.175-.694 2.735-.694.53 0 1.03.068.491.077.944.202.443.125.828.28.376.144.655.298l-.125 1.3q-.578-.347-1.127-.559t-1.069-.308q-.53-.096-1.02-.096-1.147 0-2.042.52t-1.406 1.483q-.51.972-.51 2.301 0 .886.27 1.666.26.78.789 1.377.52.597 1.3.934t1.81.337q.385 0 .761-.048t.751-.154.732-.28q.366-.172.713-.413l.105 1.28q-.317.203-.693.347-.375.154-.79.25-.414.087-.837.135-.434.049-.867.049Zm12.018-.164h-6.635V507.56h1.348v10.4l-.5-.992h5.787Zm3.284 0h-1.378V507.56h1.378Zm4.044 0h-1.28V507.56h1.213q.953 1.339 1.83 2.58t1.733 2.447l2.301 3.245h.106v-8.272h1.28v10.612h-1.193q-.79-1.117-1.657-2.35-.876-1.232-1.916-2.706l-2.311-3.264h-.106Zm11.334 0h-1.367V507.56h1.367Zm7.569.164q-1.252 0-2.263-.414-1.011-.405-1.714-1.146-.713-.742-1.088-1.743t-.376-2.186q0-1.608.665-2.841.664-1.242 1.839-1.945 1.175-.694 2.735-.694.53 0 1.03.068.5.077.944.202.452.125.828.28.375.144.655.298l-.116 1.3q-.587-.347-1.136-.559-.54-.212-1.069-.308-.52-.096-1.02-.096-1.147 0-2.042.52-.886.52-1.397 1.483-.51.972-.51 2.301 0 .886.26 1.666.27.78.79 1.377.53.597 1.3.934.78.337 1.81.337.385 0 .76-.048.386-.048.752-.154.376-.106.732-.28.366-.172.712-.413l.106 1.28q-.308.203-.693.347-.376.154-.78.25-.414.087-.847.135t-.867.049Zm5.816-.164h-1.367q.318-.857.655-1.8.337-.954.654-1.802l1.31-3.64.645-1.781q.29-.79.578-1.589h1.772l.568 1.608q.289.78.636 1.762l1.31 3.66q.317.876.644 1.8t.636 1.782h-1.396q-.328-.934-.665-1.916-.337-.992-.635-1.859l-1.936-5.624h-.125l-1.945 5.566q-.318.915-.665 1.907Zm6.192-2.668h-5.595l.125-1.059h5.374Zm10.275 2.668h-6.625V507.56h1.348v10.4l-.51-.992h5.787Zm8.811 0h-1.348v-10.42l.54 1.002h-4.17v-1.194h8.608v1.194h-4.17l.54-1.001Zm6.789 0h-1.32V507.56h3.592q1.214 0 2.013.28.809.288 1.213.924t.405 1.666q0 .866-.337 1.589t-1.127 1.155q-.79.443-2.138.443l.434-.587 1.666 2.09.837 1.04q.434.548.857 1.078.415.52.742.934h-1.58q-.529-.674-1.01-1.3l-.963-1.223-1.907-2.456.828.665h-2.436v-1.108h2.012q.934 0 1.541-.211.597-.222.896-.703.298-.472.298-1.272 0-.664-.212-1.05t-.558-.558q-.347-.183-.751-.23-.395-.049-.77-.049h-3.13l.905-.924Zm10.044 0h-1.368V507.56h1.368Zm3.197 0h-1.368q.318-.857.655-1.8.337-.954.645-1.802l1.32-3.64q.346-.982.645-1.781.289-.79.577-1.589h1.772l.568 1.608q.29.78.636 1.762l1.31 3.66q.308.876.645 1.8.327.925.635 1.782h-1.396q-.327-.934-.664-1.916-.337-.992-.636-1.859l-1.935-5.624h-.126l-1.945 5.566q-.327.915-.664 1.907Zm6.182-2.668h-5.585l.115-1.059h5.374Zm10.284 2.668h-6.625V507.56h1.348v10.4l-.51-.992h5.787Zm4.738 0V507.56h3.736q1.223 0 2.177.347.953.356 1.598 1.04.655.674.992 1.656.337.973.337 2.215 0 1.126-.298 2.09-.29.972-.944 1.704-.655.741-1.705 1.146-1.05.414-2.561.414Zm1.348-1.127h1.994q1.511 0 2.417-.558.895-.55 1.29-1.512t.395-2.176q0-.935-.231-1.695-.241-.761-.713-1.3-.481-.54-1.233-.838-.75-.289-1.762-.289h-2.157Zm10.044 1.127h-1.367q.317-.857.654-1.8.337-.954.646-1.802l1.319-3.64q.346-.982.645-1.781.289-.79.578-1.589h1.772l.568 1.608q.289.78.635 1.762l1.31 3.66q.308.876.645 1.8.328.925.636 1.782h-1.397q-.327-.934-.664-1.916-.337-.992-.636-1.859l-1.935-5.624H662l-1.946 5.566q-.327.915-.664 1.907Zm6.182-2.668h-5.585l.125-1.059h5.364Zm7.723 2.668h-1.338v-10.42l.53 1.002h-4.17v-1.194h8.618v1.194h-4.18l.54-1.001Zm5.893 0h-1.357q.308-.857.654-1.8.338-.954.646-1.802l1.319-3.64q.347-.982.635-1.781.299-.79.588-1.589h1.772l.568 1.608q.28.78.635 1.762l1.31 3.66q.308.876.645 1.8.328.925.636 1.782h-1.406q-.318-.934-.655-1.916-.337-.992-.635-1.859l-1.936-5.624h-.125l-1.945 5.566q-.328.915-.665 1.907-.347.992-.684 1.926Zm6.192-2.668h-5.585l.116-1.059h5.373Zm7.415 2.668h-1.29q.106-.867.212-1.705l.23-1.839.434-3.495.231-1.81q.096-.848.222-1.763h1.348q.462 1.127.895 2.176l.857 2.1 1.686 4.121h.096l1.666-4.112.857-2.1q.424-1.04.876-2.185h1.348q.116.905.212 1.743l.231 1.83.434 3.534q.115.963.221 1.79t.212 1.715h-1.29l-.328-2.687q-.154-1.28-.289-2.378l-.385-3.168h-.096l-1.348 3.418-.983 2.485q-.49 1.242-.914 2.33h-.915q-.27-.684-.597-1.493t-.674-1.656l-.674-1.647-1.397-3.437h-.096l-.385 3.158-.29 2.388q-.144 1.271-.317 2.687Zm13.76 0h-1.357q.308-.857.655-1.8.337-.954.645-1.802l1.32-3.64q.346-.982.635-1.781.289-.79.587-1.589h1.772l.568 1.608q.28.78.636 1.762l1.31 3.66q.308.876.645 1.8.327.925.635 1.782h-1.406q-.317-.934-.655-1.916-.337-.992-.635-1.859l-1.936-5.624h-.125l-1.955 5.566q-.317.915-.654 1.907-.347.992-.684 1.926Zm6.193-2.668h-5.585l.115-1.059h5.373Zm4.93 2.668h-1.271V507.56h1.213q.944 1.339 1.83 2.58.876 1.243 1.733 2.447l2.292 3.245h.116v-8.272h1.28v10.612h-1.203q-.78-1.117-1.657-2.35-.866-1.232-1.906-2.706l-2.321-3.264h-.106Zm10.371 0h-1.367q.318-.857.655-1.8.337-.954.654-1.802l1.31-3.64.645-1.781q.29-.79.578-1.589h1.772l.568 1.608q.289.78.636 1.762l1.31 3.66q.317.876.644 1.8t.636 1.782h-1.396q-.318-.934-.665-1.916-.337-.992-.635-1.859l-1.936-5.624h-.125l-1.945 5.566q-.318.915-.665 1.907-.337.992-.674 1.926Zm6.192-2.668h-5.595l.125-1.059h5.374Zm8.676 2.822q-1.386 0-2.436-.414-1.06-.414-1.772-1.156-.712-.75-1.078-1.743-.376-1.001-.376-2.176 0-1.598.665-2.831.654-1.242 1.858-1.945 1.204-.694 2.831-.694.559 0 1.079.068.53.077.992.212.462.125.857.279.394.144.674.289l-.116 1.3q-.626-.347-1.204-.559t-1.126-.308q-.559-.096-1.079-.096-.886 0-1.618.289-.741.289-1.29.847-.54.559-.838 1.358-.289.8-.289 1.8 0 .906.26 1.695.25.79.78 1.387.54.597 1.358.925.828.337 1.965.337.414 0 .828-.049.414-.038.828-.134.404-.087.8-.231t.76-.347l.154 1.261q-.25.116-.626.231t-.838.203q-.462.096-.972.144-.51.058-1.03.058Zm3.467-.636-1.271.02v-4.873h1.271Zm9.023.482h-6.606V507.56h6.587v1.146h-6.019l.751-.953v10.217l-.674-.954h5.961Zm-3.524-4.815h-2.061v-1.127h5.267v1.127Zm6.654 4.815h-1.281q.096-.867.212-1.705.106-.847.221-1.839l.443-3.495q.116-.973.222-1.81l.221-1.763h1.358q.462 1.127.886 2.176l.857 2.1 1.685 4.121h.106l1.666-4.112q.424-1.06.847-2.1t.877-2.185h1.357q.106.905.212 1.743.097.847.222 1.83l.433 3.534q.116.963.222 1.79t.211 1.715h-1.29l-.327-2.687q-.154-1.28-.29-2.378l-.384-3.168h-.097l-1.348 3.418-.982 2.485q-.491 1.242-.915 2.33h-.915q-.27-.684-.597-1.493t-.674-1.656l-.674-1.647-1.387-3.437h-.096l-.385 3.158-.289 2.388Zm19.952 0h-6.606V507.56h6.587v1.146h-6.019l.742-.953v10.217l-.665-.954h5.961Zm-3.534-4.815h-2.051v-1.127h5.267v1.127Zm7.04 4.815h-1.281V507.56h1.213q.953 1.339 1.83 2.58t1.733 2.447l2.301 3.245h.106v-8.272h1.281v10.612h-1.194q-.79-1.117-1.666-2.35-.867-1.232-1.907-2.706l-2.32-3.264h-.097Zm14.01 0h-1.348v-10.42l.53 1.002h-4.17v-1.194h8.619v1.194h-4.18l.55-1.001Zm12.375.164q-1.474 0-2.408-.51-.924-.511-1.358-1.445-.433-.925-.433-2.157v-6.664h1.339v6.529q0 .963.279 1.656.289.684.915 1.06.626.365 1.666.365 1.05 0 1.675-.366.616-.375.896-1.059.27-.693.27-1.666v-6.519h1.347v6.664q0 1.232-.443 2.157-.442.934-1.357 1.444-.925.51-2.388.51Zm9.89 0q-.665 0-1.33-.126-.674-.125-1.252-.308-.568-.183-.914-.366l.125-1.27q.5.269 1.04.48.54.203 1.098.309.568.115 1.155.115.655 0 1.194-.183.53-.183.838-.577.308-.405.308-1.05 0-.568-.318-.934t-.924-.636-1.473-.53q-1.012-.327-1.724-.693-.713-.375-1.088-.924t-.376-1.396q0-.819.385-1.474.395-.654 1.166-1.03t1.916-.376q.481 0 .944.068t.895.173q.424.116.77.26t.598.29l-.135 1.28q-.453-.308-.963-.51-.501-.203-1.002-.3-.5-.105-.924-.105-.607 0-1.108.183-.51.173-.818.54-.308.375-.308.953 0 .51.26.837.26.337.828.597.558.27 1.444.55 1.281.404 2.013.818t1.04.953q.308.549.308 1.329 0 .876-.385 1.56-.376.684-1.194 1.088-.81.405-2.09.405Zm7.038-.164h-1.367V507.56h1.367Zm4.045 0h-1.271V507.56h1.213q.944 1.339 1.83 2.58.876 1.243 1.733 2.447l2.292 3.245h.115v-8.272h1.281v10.612h-1.203q-.78-1.117-1.657-2.35-.866-1.232-1.906-2.706l-2.321-3.264h-.106Zm14.964.154q-1.377 0-2.436-.414-1.05-.414-1.762-1.156-.713-.75-1.088-1.743-.366-1.001-.366-2.176 0-1.598.655-2.831.664-1.242 1.868-1.945 1.194-.694 2.83-.694.56 0 1.08.068.529.077.991.212.462.125.857.279.385.144.674.289l-.125 1.3q-.616-.347-1.194-.559t-1.136-.308q-.55-.096-1.07-.096-.885 0-1.627.289t-1.28.847-.838 1.358q-.289.8-.289 1.8 0 .906.25 1.695.26.79.79 1.387t1.358.925q.828.337 1.955.337.423 0 .837-.049.414-.038.819-.134.404-.087.8-.231t.77-.347l.154 1.261q-.25.116-.626.231t-.838.203q-.462.096-.973.144-.51.058-1.04.058Zm3.477-.636-1.271.02v-4.873h1.27Zm10.284.636q-1.387 0-2.436-.414t-1.772-1.156q-.713-.75-1.079-1.743-.366-1.001-.366-2.176 0-1.598.655-2.831.665-1.242 1.859-1.945 1.204-.694 2.83-.694.56 0 1.09.068.52.077.99.212.463.125.848.279.395.144.674.289l-.115 1.3q-.616-.347-1.194-.559-.588-.212-1.137-.308t-1.068-.096q-.886 0-1.628.289t-1.28.847q-.55.559-.838 1.358-.299.8-.299 1.8 0 .906.26 1.695t.79 1.387 1.358.925q.828.337 1.954.337.414 0 .838-.049.414-.038.819-.134.404-.087.799-.231t.77-.347l.154 1.261q-.25.116-.626.231t-.837.203q-.463.096-.973.144-.51.058-1.04.058Zm3.476-.636-1.27.02v-4.873h1.27Zm9.014.482h-6.606V507.56h6.596v1.146h-6.018l.741-.953v10.217l-.674-.954h5.96Zm-3.525-4.815h-2.05v-1.127h5.267v1.127Zm7.03 4.815h-1.28V507.56h1.212q.954 1.339 1.83 2.58.886 1.243 1.733 2.447l2.302 3.245h.115v-8.272h1.281v10.612h-1.203q-.79-1.117-1.657-2.35t-1.916-2.706l-2.311-3.264h-.106Zm16.553 0h-6.606V507.56h6.587v1.146h-6.019l.742-.953v10.217l-.665-.954h5.961Zm-3.534-4.815h-2.051v-1.127h5.267v1.127Zm7.068 4.815h-1.31V507.56h3.583q1.213 0 2.022.28.809.288 1.213.924t.405 1.666q0 .866-.337 1.589t-1.127 1.155q-.79.443-2.138.443l.424-.587 1.676 2.09q.394.49.828 1.04.443.548.857 1.078.424.52.751.934h-1.58l-1.02-1.3q-.482-.626-.963-1.223l-1.907-2.456.828.665h-2.436v-1.108h2.022q.925 0 1.532-.211.606-.222.905-.703.289-.472.289-1.272 0-.664-.212-1.05t-.559-.558q-.337-.183-.741-.23t-.78-.049h-3.12l.895-.924Zm9.081 0h-1.358l.645-1.8q.337-.954.655-1.802l1.32-3.64q.346-.982.635-1.781.289-.79.578-1.589h1.772q.289.819.577 1.608.28.78.626 1.762l1.31 3.66q.318.876.645 1.8.337.925.636 1.782h-1.397q-.317-.934-.654-1.916-.337-.992-.636-1.859l-1.935-5.624h-.126l-1.954 5.566q-.318.915-.665 1.907-.337.992-.674 1.926Zm6.192-2.668h-5.585l.115-1.059h5.374Zm7.723 2.668h-1.348v-10.42l.539 1.002h-4.18v-1.194h8.62v1.194h-4.17l.539-1.001Zm6.856 0h-1.367V507.56h1.367Zm7.434 0h-1.839q-.28-.8-.607-1.705-.317-.895-.597-1.665l-1.184-3.323q-.202-.578-.443-1.242l-.491-1.358q-.241-.693-.472-1.319h1.492q.386 1.136.829 2.427.452 1.3.837 2.436l1.493 4.353h.125l1.512-4.372q.395-1.165.828-2.417.434-1.243.838-2.427h1.444q-.23.636-.471 1.32t-.482 1.347q-.231.665-.433 1.233l-1.194 3.351q-.27.77-.588 1.656-.308.886-.597 1.705Zm12.162 0h-6.605V507.56h6.586v1.146h-6.018l.741-.953v10.217l-.664-.954h5.96Zm-3.524-4.815h-2.06v-1.127h5.267v1.127Zm9.023 4.815h-1.367q.317-.857.654-1.8.337-.954.655-1.802l1.31-3.64.645-1.781q.289-.79.578-1.589h1.772q.289.819.577 1.608.28.78.626 1.762l1.31 3.66q.318.876.645 1.8t.636 1.782h-1.397q-.317-.934-.664-1.916-.337-.992-.636-1.859l-1.926-5.624h-.134l-1.946 5.566q-.317.915-.664 1.907-.337.992-.674 1.926Zm6.192-2.668h-5.595l.125-1.059h5.374Zm5.046 2.668h-1.377V507.56h1.377Z" font-family="Commissioner" font-size="15.453"/><g transform="translate(394.386 279.648)scale(1.80074)"><linearGradient id="a" x1="0" x2="1" y1="0" y2="0" gradientUnits="objectBoundingBox"><stop offset="0%" stop-color="#0f3054"/><stop offset="49.8%" stop-color="#3b8dcb"/><stop offset="100%" stop-color="#0f3054"/></linearGradient><path fill="url(#a)" d="M282.443 84.76c-13.9 0-27.8-.04-41.7.04-2 .01-3.13-.62-4.13-2.39-13.85-24.55-27.75-49.08-41.71-73.57-.96-1.69-.87-2.94.06-4.56 14.04-24.54 28.04-49.11 41.98-73.71.96-1.69 2.06-2.25 3.96-2.25q41.82.075 83.64 0c1.87 0 2.96.52 3.93 2.24 13.74 24.33 27.55 48.63 41.43 72.87 1.32 2.3 1.31 4.03 0 6.33a13078 13078 0 0 0-40.99 71.98c-1.27 2.25-2.67 3.1-5.28 3.07-13.73-.13-27.46-.06-41.2-.06Zm-28.77-123.73v97.44c27.62-15.68 54.81-31.12 82.46-46.82-27.73-17.02-54.87-33.68-82.46-50.62m2.87-3.45c27.05 16.6 53.56 32.87 80.67 49.51-.29-2.19-.42-3.65-.68-5.08-3.8-21.2-7.62-42.39-11.41-63.59-.53-2.97-.55-3.04-3.52-2.07-17.09 5.55-34.17 11.1-51.26 16.66-4.4 1.43-8.78 2.9-13.81 4.56Zm-7.86 99v-94.35c-15.96 15.34-31.47 30.25-47.22 45.39 15.68 16.26 31.18 32.34 47.22 48.97Zm8.77 4.96c.95.36 1.39.58 1.84.69 20.09 5 40.19 10.01 60.29 14.99 3.24.8 3.23.74 3.98-2.46 4.3-18.46 8.62-36.92 12.91-55.38.19-.82.25-1.67.46-3.12-26.71 15.21-52.83 30.1-79.49 45.28Zm-14.86-128.62c.44 1.14.7 1.92 1.04 2.65 2.52 5.43 5.17 10.8 7.52 16.3.89 2.08 1.91 2.18 3.8 1.56 18.64-6.11 37.31-12.15 55.96-18.22 1.87-.61 3.72-1.3 5.57-1.95-.04-.11-.09-.23-.13-.34Zm88.91 12.03c-.19.08-.39.16-.58.25.45 2.52.91 5.05 1.35 7.57 3.21 18.08 6.44 36.15 9.6 54.24.3 1.73.85 2.21 2.62 1.77 4.03-.99 8.13-1.74 12.18-2.64 2.65-.59 5.28-1.27 8.32-2-11.28-19.94-22.39-39.57-33.5-59.19ZM203.073-1.01l.36.33c.26-.17.56-.31.79-.53 14.32-13.69 28.62-27.39 42.96-41.05 1.15-1.09 1.06-1.99.46-3.27-2.56-5.41-5.03-10.87-7.56-16.3-.28-.61-.72-1.14-1.31-2.06-12.06 21.25-23.88 42.06-35.7 62.88m162.28 9.53c-7.78 1.66-14.77 3.1-21.7 4.73-.74.17-1.56 1.41-1.77 2.29-4.37 18.34-8.67 36.71-12.96 55.07-.13.56-.14 1.15-.21 1.73.14.03.28.07.42.1 11.95-21.08 23.89-42.15 36.23-63.92Zm-53.32 71.8.06-.3c-.51-.2-1-.45-1.53-.58-18.54-4.67-37.09-9.31-55.62-14.01-1.85-.47-3.12-.26-4.08 1.61-1.14 2.21-2.58 4.27-3.86 6.4-1.3 2.17-2.57 4.36-4.05 6.87h69.08Zm-72.85-2.48c2.7-4.52 4.95-8.58 7.51-12.43 1.36-2.05 1.21-3.3-.51-5.07-12.54-12.84-24.97-25.79-37.44-38.69-.53-.55-1.12-1.04-1.68-1.55-.14.12-.28.23-.42.35 10.75 18.95 21.49 37.9 32.54 57.4Z" transform="translate(-88.33 -78.25)" vector-effect="non-scaling-stroke"/></g><path fill="transparent" stroke="transparent" d="M480 0h540v528H480z"/></g></svg>