<svg xmlns="http://www.w3.org/2000/svg" xml:space="preserve" width="1500" height="528" data-id="lg_I3ZGvWy2IVdSzCXZiR" data-version="1">
  <g data-padding="20">
    <g transform="translate(394.386 279.648)scale(1.80074)">
      <linearGradient id="a" x1="0" x2="1" y1="0" y2="0" gradientUnits="objectBoundingBox">
        <stop offset="0%" stop-color="#0f3054"/>
        <stop offset="49.8%" stop-color="#3b8dcb"/>
        <stop offset="100%" stop-color="#0f3054"/>
      </linearGradient>
      <path fill="url(#a)" d="M282.443 84.76c-13.9 0-27.8-.04-41.7.04-2 .01-3.13-.62-4.13-2.39-13.85-24.55-27.75-49.08-41.71-73.57-.96-1.69-.87-2.94.06-4.56 14.04-24.54 28.04-49.11 41.98-73.71.96-1.69 2.06-2.25 3.96-2.25q41.82.075 83.64 0c1.87 0 2.96.52 3.93 2.24 13.74 24.33 27.55 48.63 41.43 72.87 1.32 2.3 1.31 4.03 0 6.33a13078 13078 0 0 0-40.99 71.98c-1.27 2.25-2.67 3.1-5.28 3.07-13.73-.13-27.46-.06-41.2-.06Zm-28.77-123.73v97.44c27.62-15.68 54.81-31.12 82.46-46.82-27.73-17.02-54.87-33.68-82.46-50.62m2.87-3.45c27.05 16.6 53.56 32.87 80.67 49.51-.29-2.19-.42-3.65-.68-5.08-3.8-21.2-7.62-42.39-11.41-63.59-.53-2.97-.55-3.04-3.52-2.07-17.09 5.55-34.17 11.1-51.26 16.66-4.4 1.43-8.78 2.9-13.81 4.56Zm-7.86 99v-94.35c-15.96 15.34-31.47 30.25-47.22 45.39 15.68 16.26 31.18 32.34 47.22 48.97Zm8.77 4.96c.95.36 1.39.58 1.84.69 20.09 5 40.19 10.01 60.29 14.99 3.24.8 3.23.74 3.98-2.46 4.3-18.46 8.62-36.92 12.91-55.38.19-.82.25-1.67.46-3.12-26.71 15.21-52.83 30.1-79.49 45.28Zm-14.86-128.62c.44 1.14.7 1.92 1.04 2.65 2.52 5.43 5.17 10.8 7.52 16.3.89 2.08 1.91 2.18 3.8 1.56 18.64-6.11 37.31-12.15 55.96-18.22 1.87-.61 3.72-1.3 5.57-1.95-.04-.11-.09-.23-.13-.34Zm88.91 12.03c-.19.08-.39.16-.58.25.45 2.52.91 5.05 1.35 7.57 3.21 18.08 6.44 36.15 9.6 54.24.3 1.73.85 2.21 2.62 1.77 4.03-.99 8.13-1.74 12.18-2.64 2.65-.59 5.28-1.27 8.32-2-11.28-19.94-22.39-39.57-33.5-59.19ZM203.073-1.01l.36.33c.26-.17.56-.31.79-.53 14.32-13.69 28.62-27.39 42.96-41.05 1.15-1.09 1.06-1.99.46-3.27-2.56-5.41-5.03-10.87-7.56-16.3-.28-.61-.72-1.14-1.31-2.06-12.06 21.25-23.88 42.06-35.7 62.88m162.28 9.53c-7.78 1.66-14.77 3.1-21.7 4.73-.74.17-1.56 1.41-1.77 2.29-4.37 18.34-8.67 36.71-12.96 55.07-.13.56-.14 1.15-.21 1.73.14.03.28.07.42.1 11.95-21.08 23.89-42.15 36.23-63.92Zm-53.32 71.8.06-.3c-.51-.2-1-.45-1.53-.58-18.54-4.67-37.09-9.31-55.62-14.01-1.85-.47-3.12-.26-4.08 1.61-1.14 2.21-2.58 4.27-3.86 6.4-1.3 2.17-2.57 4.36-4.05 6.87h69.08Zm-72.85-2.48c2.7-4.52 4.95-8.58 7.51-12.43 1.36-2.05 1.21-3.3-.51-5.07-12.54-12.84-24.97-25.79-37.44-38.69-.53-.55-1.12-1.04-1.68-1.55-.14.12-.28.23-.42.35 10.75 18.95 21.49 37.9 32.54 57.4Z" transform="translate(-88.33 -78.25)" vector-effect="non-scaling-stroke"/>
    </g>
    <path fill="transparent" stroke="transparent" d="M480 0h540v528H480z"/>
  </g>
</svg>
