<svg xmlns="http://www.w3.org/2000/svg" xml:space="preserve" width="1500" height="528" data-id="lg_I3ZGvWy2IVdSzCXZiR" data-version="1"><g data-padding="20"><path fill="#1b4571" stroke="null" stroke-width=".963" d="M536.034 460.598H516.16v-83.249l7.52 14.243h-33.626V374.2h72.04v17.39h-33.627l7.568-14.242Zm57.19 0h-19.567V374.2h33.146q10.544 0 17.843 2.33 7.3 2.34 11.084 7.79t3.784 14.84q0 7.453-2.937 13.394t-9.417 9.39q-6.481 3.456-16.968 3.456l7.694-7.27 11.758 17.324q2.725 3.996 5.816 8.58 3.091 4.574 6.029 8.897 2.937 4.334 5.18 7.666h-22.6q-3.275-5.085-6.298-9.755-3.034-4.661-5.884-9.081L597.895 419.7l11.816 9.032h-20.059V414.49h14.425q4.844 0 8.147-1.175 3.303-1.184 4.998-4.035t1.695-7.81q0-3.697-1.088-5.97t-2.938-3.543-4.121-1.695-4.574-.424H579.05l14.175-12.49Zm85.011 0h-20.357V374.2h20.357Zm31.383 0h-19.991q2.302-6.963 4.815-14.657t4.757-14.608l9.755-29.62q2.6-8.06 4.718-14.512 2.128-6.452 4.247-13h25.692q2.176 6.788 4.266 13.211t4.699 14.3l9.63 29.689q2.368 7.145 4.814 14.723 2.456 7.57 4.7 14.474h-20.598q-1.945-6.905-3.996-14.146-2.061-7.242-3.939-13.723l-11.883-41.619h-1.454l-11.989 41.196q-1.945 6.721-4.092 14.088-2.148 7.357-4.15 14.204Zm43.256-18.056h-42.408l2.118-14.897h38.596Zm88.035 18.056h-58.221V374.2h19.933v83.19l-6.904-14.175h45.192Zm54.532-30.469h-19.028l-17.815-33.877q-2.908-5.508-5.537-10.534-2.638-5.037-6.095-11.517h22.658q2.244 5.026 3.823 8.637 1.57 3.602 2.995 6.818 1.425 3.207 3.12 7.087l5.575 12.596h1.637l5.518-12.23q1.878-4.063 3.361-7.395t3.12-6.972q1.637-3.63 3.871-8.541h21.994q-2.908 5.575-5.816 11.122-2.908 5.537-5.633 10.872Zm.54 30.469h-19.992v-47.253h19.991Zm56.41 0h-22.12q3.217-6 6.549-12.269l6.904-12.99 11.575-21.696v4.67l-10.179-17.872-7.145-12.45q-3.64-6.337-7.877-13.79h22.659q2.667 5.094 5.21 9.937t4.843 9.274l5.941 11.324h1.512l5.691-11.392 4.67-9.321 4.912-9.822h21.927q-3.814 7.154-7.357 13.635t-6.452 11.931l-11.151 20.608v-5.335L993.894 434q4.237 6.972 8.09 13.366l7.963 13.232h-23.506q-2.667-4.902-5.027-9.264-2.368-4.362-4.603-8.368l-7.212-13.328h-1.512l-6.731 13.395q-2.176 4.18-4.333 8.445-2.148 4.276-4.632 9.12Z" font-family="Commissioner" font-size="125.835"/><path fill="#1b4571" stroke="null" stroke-width=".963" d="M536.747 518.337q-1.261 0-2.263-.414-1.011-.405-1.714-1.146-.713-.742-1.088-1.743t-.376-2.186q0-1.608.665-2.84.664-1.243 1.839-1.946 1.175-.693 2.735-.693.53 0 1.03.067.491.077.944.202.443.125.828.28.376.144.655.298l-.125 1.3q-.578-.347-1.127-.558t-1.069-.309q-.53-.096-1.02-.096-1.147 0-2.042.52t-1.406 1.483q-.51.973-.51 2.302 0 .885.27 1.665.26.78.789 1.378.52.597 1.3.934t1.81.337q.385 0 .761-.049t.751-.154.732-.279q.366-.173.713-.414l.105 1.28q-.317.203-.693.347-.375.155-.79.25-.414.088-.837.136-.434.048-.867.048Zm12.018-.164h-6.635v-10.612h1.348v10.4l-.5-.992h5.787Zm3.284 0h-1.378v-10.612h1.378Zm4.044 0h-1.28v-10.612h1.213q.953 1.339 1.83 2.581t1.733 2.446l2.301 3.245h.106v-8.272h1.28v10.612h-1.193q-.79-1.117-1.657-2.35-.876-1.232-1.916-2.705l-2.311-3.265h-.106Zm11.334 0h-1.367v-10.612h1.367Zm7.569.164q-1.252 0-2.263-.414-1.011-.405-1.714-1.146-.713-.742-1.088-1.743t-.376-2.186q0-1.608.665-2.84.664-1.243 1.839-1.946 1.175-.693 2.735-.693.53 0 1.03.067.5.077.944.202.452.125.828.28.375.144.655.298l-.116 1.3q-.587-.347-1.136-.558-.54-.212-1.069-.309-.52-.096-1.02-.096-1.147 0-2.042.52-.886.52-1.397 1.483-.51.973-.51 2.302 0 .885.26 1.665.27.78.79 1.378.53.597 1.3.934.78.337 1.81.337.385 0 .76-.049.386-.048.752-.154.376-.106.732-.279.366-.173.712-.414l.106 1.28q-.308.203-.693.347-.376.155-.78.25-.414.088-.847.136t-.867.048Zm5.816-.164h-1.367q.318-.857.655-1.8.337-.954.654-1.801l1.31-3.64.645-1.782q.29-.79.578-1.589h1.772l.568 1.608q.289.78.636 1.763l1.31 3.659q.317.876.644 1.8t.636 1.782h-1.396q-.328-.934-.665-1.916-.337-.992-.635-1.859l-1.936-5.623h-.125l-1.945 5.566-.665 1.906Zm6.192-2.667h-5.595l.125-1.06h5.374Zm10.275 2.667h-6.625v-10.612h1.348v10.4l-.51-.992h5.787Zm8.811 0h-1.348v-10.42l.54 1.002h-4.17v-1.194h8.608v1.194h-4.17l.54-1.001Zm6.789 0h-1.32v-10.612h3.592q1.214 0 2.013.28.809.288 1.213.924t.405 1.666q0 .867-.337 1.589t-1.127 1.155q-.79.443-2.138.443l.434-.587 1.666 2.09.837 1.04q.434.548.857 1.078.415.52.742.934h-1.58q-.529-.674-1.01-1.3l-.963-1.223-1.907-2.455.828.664h-2.436v-1.107h2.012q.934 0 1.541-.212.597-.222.896-.703.298-.472.298-1.271 0-.665-.212-1.05t-.558-.558q-.347-.183-.751-.232-.395-.048-.77-.048h-3.13l.905-.924Zm10.044 0h-1.368v-10.612h1.368Zm3.197 0h-1.368q.318-.857.655-1.8.337-.954.645-1.801l1.32-3.64q.346-.983.645-1.782.289-.79.577-1.589h1.772l.568 1.608q.29.78.636 1.763l1.31 3.659q.308.876.645 1.8.327.925.635 1.782h-1.396q-.327-.934-.664-1.916-.337-.992-.636-1.859l-1.935-5.623h-.126l-1.945 5.566q-.327.914-.664 1.906Zm6.182-2.667h-5.585l.115-1.06h5.374Zm10.284 2.667h-6.625v-10.612h1.348v10.4l-.51-.992h5.787Zm4.738 0v-10.612h3.736q1.223 0 2.177.347.953.356 1.598 1.04.655.674.992 1.656.337.973.337 2.215 0 1.127-.298 2.09-.29.972-.944 1.704-.655.742-1.705 1.146-1.05.414-2.561.414Zm1.348-1.127h1.994q1.511 0 2.417-.558.895-.549 1.29-1.512t.395-2.176q0-.934-.231-1.695-.241-.76-.713-1.3-.481-.54-1.233-.838-.75-.289-1.762-.289h-2.157Zm10.044 1.127h-1.367q.317-.857.654-1.8.337-.954.646-1.801l1.319-3.64q.346-.983.645-1.782.289-.79.578-1.589h1.772l.568 1.608q.289.78.635 1.763l1.31 3.659q.308.876.645 1.8.328.925.636 1.782h-1.397q-.327-.934-.664-1.916-.337-.992-.636-1.859l-1.935-5.623H662l-1.946 5.566q-.327.914-.664 1.906Zm6.182-2.667h-5.585l.125-1.06h5.364Zm7.723 2.667h-1.338v-10.42l.53 1.002h-4.17v-1.194h8.618v1.194h-4.18l.54-1.001Zm5.893 0h-1.357q.308-.857.654-1.8.338-.954.646-1.801l1.319-3.64q.347-.983.635-1.782.299-.79.588-1.589h1.772l.568 1.608.635 1.763 1.31 3.659q.308.876.645 1.8.328.925.636 1.782h-1.406q-.318-.934-.655-1.916-.337-.992-.635-1.859l-1.936-5.623h-.125l-1.945 5.566q-.328.914-.665 1.906-.347.992-.684 1.926Zm6.192-2.667h-5.585l.116-1.06h5.373Zm7.415 2.667h-1.29q.106-.867.212-1.704l.23-1.84.434-3.495.231-1.81q.096-.848.222-1.763h1.348q.462 1.127.895 2.177l.857 2.099 1.686 4.121h.096l1.666-4.112.857-2.099q.424-1.04.876-2.186h1.348q.116.905.212 1.743.106.848.231 1.83l.434 3.534q.115.963.221 1.791t.212 1.714h-1.29l-.328-2.687q-.154-1.28-.289-2.378l-.385-3.168h-.096l-1.348 3.418-.983 2.485q-.49 1.242-.914 2.33h-.915q-.27-.684-.597-1.492t-.674-1.657l-.674-1.646-1.397-3.438h-.096l-.385 3.158-.29 2.388q-.144 1.272-.317 2.687Zm13.76 0h-1.357q.308-.857.655-1.8.337-.954.645-1.801l1.32-3.64q.346-.983.635-1.782.289-.79.587-1.589h1.772l.568 1.608q.28.78.636 1.763l1.31 3.659q.308.876.645 1.8.327.925.635 1.782h-1.406q-.317-.934-.655-1.916-.337-.992-.635-1.859l-1.936-5.623h-.125l-1.955 5.566q-.317.914-.654 1.906-.347.992-.684 1.926Zm6.193-2.667h-5.585l.115-1.06h5.373Zm4.93 2.667h-1.271v-10.612h1.213q.944 1.339 1.83 2.581.876 1.242 1.733 2.446l2.292 3.245h.116v-8.272h1.28v10.612h-1.203q-.78-1.117-1.657-2.35-.866-1.232-1.906-2.705l-2.321-3.265h-.106Zm10.371 0h-1.367q.318-.857.655-1.8.337-.954.654-1.801l1.31-3.64.645-1.782q.29-.79.578-1.589h1.772l.568 1.608q.289.78.636 1.763l1.31 3.659q.317.876.644 1.8t.636 1.782h-1.396q-.318-.934-.665-1.916-.337-.992-.635-1.859l-1.936-5.623h-.125l-1.945 5.566-.665 1.906q-.337.992-.674 1.926Zm6.192-2.667h-5.595l.125-1.06h5.374Zm8.676 2.821q-1.386 0-2.436-.414-1.06-.414-1.772-1.155-.712-.752-1.078-1.743-.376-1.002-.376-2.177 0-1.598.665-2.83.654-1.243 1.858-1.946 1.204-.693 2.831-.693.559 0 1.079.067.53.077.992.212.462.125.857.28.394.144.674.288l-.116 1.3q-.626-.347-1.204-.558t-1.126-.309q-.559-.096-1.079-.096-.886 0-1.618.289-.741.289-1.29.847-.54.559-.838 1.358-.289.8-.289 1.8 0 .906.26 1.696.25.79.78 1.386.54.597 1.358.925.828.337 1.965.337.414 0 .828-.048.414-.039.828-.135.404-.087.8-.231t.76-.347l.154 1.262q-.25.115-.626.23t-.838.203q-.462.096-.972.144-.51.058-1.03.058Zm3.467-.635-1.271.019v-4.873h1.271Zm9.023.481h-6.606v-10.612h6.587v1.146h-6.019l.751-.953v10.217l-.674-.953h5.961Zm-3.524-4.815h-2.061v-1.126h5.267v1.126Zm6.654 4.815h-1.281q.096-.867.212-1.704.106-.848.221-1.84l.443-3.495q.116-.973.222-1.81l.221-1.763h1.358q.462 1.127.886 2.177l.857 2.099 1.685 4.121h.106l1.666-4.112q.424-1.059.847-2.099t.877-2.186h1.357q.106.905.212 1.743.097.848.222 1.83l.433 3.534q.116.963.222 1.791t.211 1.714h-1.29l-.327-2.687q-.154-1.28-.29-2.378l-.384-3.168h-.097l-1.348 3.418-.982 2.485q-.491 1.242-.915 2.33h-.915q-.27-.684-.597-1.492t-.674-1.657l-.674-1.646-1.387-3.438h-.096l-.385 3.158-.289 2.388Zm19.952 0h-6.606v-10.612h6.587v1.146h-6.019l.742-.953v10.217l-.665-.953h5.961Zm-3.534-4.815h-2.051v-1.126h5.267v1.126Zm7.04 4.815h-1.281v-10.612h1.213q.953 1.339 1.83 2.581t1.733 2.446l2.301 3.245h.106v-8.272h1.281v10.612h-1.194q-.79-1.117-1.666-2.35-.867-1.232-1.907-2.705l-2.32-3.265h-.097Zm14.01 0h-1.348v-10.42l.53 1.002h-4.17v-1.194h8.619v1.194h-4.18l.55-1.001Zm12.375.164q-1.474 0-2.408-.51-.924-.51-1.358-1.445-.433-.924-.433-2.157v-6.664h1.339v6.53q0 .962.279 1.655.289.684.915 1.06.626.366 1.666.366 1.05 0 1.675-.366.616-.376.896-1.06.27-.693.27-1.665v-6.52h1.347v6.664q0 1.233-.443 2.157-.442.934-1.357 1.444-.925.51-2.388.51Zm9.89 0q-.665 0-1.33-.125-.674-.126-1.252-.309-.568-.182-.914-.365l.125-1.272q.5.27 1.04.482.54.202 1.098.308.568.116 1.155.116.655 0 1.194-.183.53-.183.838-.578.308-.405.308-1.05 0-.568-.318-.934t-.924-.635-1.473-.53q-1.012-.327-1.724-.693-.713-.376-1.088-.925t-.376-1.396q0-.819.385-1.473.395-.655 1.166-1.03t1.916-.376q.481 0 .944.067t.895.173q.424.116.77.26t.598.29l-.135 1.28q-.453-.308-.963-.51-.501-.203-1.002-.299-.5-.106-.924-.106-.607 0-1.108.183-.51.174-.818.54-.308.375-.308.953 0 .51.26.838.26.337.828.597.558.27 1.444.548 1.281.405 2.013.819t1.04.953q.308.55.308 1.33 0 .876-.385 1.56-.376.683-1.194 1.087-.81.405-2.09.405Zm7.038-.164h-1.367v-10.612h1.367Zm4.045 0h-1.271v-10.612h1.213q.944 1.339 1.83 2.581.876 1.242 1.733 2.446l2.292 3.245h.115v-8.272h1.281v10.612h-1.203q-.78-1.117-1.657-2.35-.866-1.232-1.906-2.705l-2.321-3.265h-.106Zm14.964.154q-1.377 0-2.436-.414-1.05-.414-1.762-1.155-.713-.752-1.088-1.743-.366-1.002-.366-2.177 0-1.598.655-2.83.664-1.243 1.868-1.946 1.194-.693 2.83-.693.56 0 1.08.067.529.077.991.212.462.125.857.28.385.144.674.288l-.125 1.3q-.616-.347-1.194-.558t-1.136-.309q-.55-.096-1.07-.096-.885 0-1.627.289t-1.28.847-.838 1.358q-.289.8-.289 1.8 0 .906.25 1.696.26.79.79 1.386t1.358.925q.828.337 1.955.337.423 0 .837-.048.414-.039.819-.135.404-.087.8-.231t.77-.347l.154 1.262q-.25.115-.626.23t-.838.203q-.462.096-.973.144-.51.058-1.04.058Zm3.477-.635-1.271.019v-4.873h1.27Zm10.284.635q-1.387 0-2.436-.414t-1.772-1.155q-.713-.752-1.079-1.743-.366-1.002-.366-2.177 0-1.598.655-2.83.665-1.243 1.859-1.946 1.204-.693 2.83-.693.56 0 1.09.067.52.077.99.212.463.125.848.28.395.144.674.288l-.115 1.3q-.616-.347-1.194-.558-.588-.212-1.137-.309t-1.068-.096q-.886 0-1.628.289t-1.28.847q-.55.559-.838 1.358-.299.8-.299 1.8 0 .906.26 1.696t.79 1.386 1.358.925q.828.337 1.954.337.414 0 .838-.048.414-.039.819-.135.404-.087.799-.231t.77-.347l.154 1.262q-.25.115-.626.23t-.837.203q-.463.096-.973.144-.51.058-1.04.058Zm3.476-.635-1.27.019v-4.873h1.27Zm9.014.481h-6.606v-10.612h6.596v1.146h-6.018l.741-.953v10.217l-.674-.953h5.96Zm-3.525-4.815h-2.05v-1.126h5.267v1.126Zm7.03 4.815h-1.28v-10.612h1.212q.954 1.339 1.83 2.581.886 1.242 1.733 2.446l2.302 3.245h.115v-8.272h1.281v10.612h-1.203q-.79-1.117-1.657-2.35t-1.916-2.705l-2.311-3.265h-.106Zm16.553 0h-6.606v-10.612h6.587v1.146h-6.019l.742-.953v10.217l-.665-.953h5.961Zm-3.534-4.815h-2.051v-1.126h5.267v1.126Zm7.068 4.815h-1.31v-10.612h3.583q1.213 0 2.022.28.809.288 1.213.924t.405 1.666q0 .867-.337 1.589t-1.127 1.155q-.79.443-2.138.443l.424-.587 1.676 2.09q.394.49.828 1.04.443.548.857 1.078.424.52.751.934h-1.58l-1.02-1.3q-.482-.626-.963-1.223l-1.907-2.455.828.664h-2.436v-1.107h2.022q.925 0 1.532-.212.606-.222.905-.703.289-.472.289-1.271 0-.665-.212-1.05t-.559-.558q-.337-.183-.741-.232t-.78-.048h-3.12l.895-.924Zm9.081 0h-1.358l.645-1.8q.337-.954.655-1.801l1.32-3.64q.346-.983.635-1.782.289-.79.578-1.589h1.772q.289.819.577 1.608.28.78.626 1.763l1.31 3.659q.318.876.645 1.8.337.925.636 1.782h-1.397q-.317-.934-.654-1.916-.337-.992-.636-1.859l-1.935-5.623h-.126l-1.954 5.566-.665 1.906q-.337.992-.674 1.926Zm6.192-2.667h-5.585l.115-1.06h5.374Zm7.723 2.667h-1.348v-10.42l.539 1.002h-4.18v-1.194h8.62v1.194h-4.17l.539-1.001Zm6.856 0h-1.367v-10.612h1.367Zm7.434 0h-1.839q-.28-.8-.607-1.704-.317-.896-.597-1.666l-1.184-3.322q-.202-.578-.443-1.243l-.491-1.357q-.241-.694-.472-1.32h1.492q.386 1.137.829 2.427.452 1.3.837 2.436l1.493 4.353h.125l1.512-4.372q.395-1.165.828-2.417.434-1.242.838-2.427h1.444q-.23.636-.471 1.32t-.482 1.348q-.231.664-.433 1.232l-1.194 3.351q-.27.77-.588 1.657-.308.886-.597 1.704Zm12.162 0h-6.605v-10.612h6.586v1.146h-6.018l.741-.953v10.217l-.664-.953h5.96Zm-3.524-4.815h-2.06v-1.126h5.267v1.126Zm9.023 4.815h-1.367q.317-.857.654-1.8.337-.954.655-1.801l1.31-3.64.645-1.782q.289-.79.578-1.589h1.772q.289.819.577 1.608.28.78.626 1.763l1.31 3.659q.318.876.645 1.8t.636 1.782h-1.397q-.317-.934-.664-1.916-.337-.992-.636-1.859l-1.926-5.623h-.134l-1.946 5.566q-.317.914-.664 1.906-.337.992-.674 1.926Zm6.192-2.667h-5.595l.125-1.06h5.374Zm5.046 2.667h-1.377v-10.612h1.377Z" font-family="Commissioner" font-size="15.453"/><path fill="#333" d="M743.933 291.371c-25.03 0-50.06-.072-75.091.072-3.602.018-5.636-1.116-7.437-4.304-24.94-44.208-49.97-88.38-75.11-132.48-1.728-3.043-1.566-5.294.109-8.212a37045 37045 0 0 0 75.595-132.732c1.729-3.043 3.71-4.052 7.131-4.052q75.307.135 150.614 0c3.367 0 5.33.937 7.077 4.034a25379 25379 0 0 0 74.605 131.22c2.377 4.142 2.359 7.257 0 11.399a23550 23550 0 0 0-73.813 129.617c-2.287 4.051-4.808 5.582-9.508 5.528-24.724-.234-49.448-.108-74.19-.108ZM692.125 68.565V244.03c49.737-28.236 98.699-56.04 148.49-84.311-49.935-30.649-98.807-60.649-148.49-91.154m5.169-6.212c48.71 29.892 96.447 59.19 145.265 89.155-.522-3.944-.756-6.573-1.224-9.148-6.843-38.176-13.722-76.334-20.547-114.51-.954-5.348-.99-5.474-6.338-3.727a183359 183359 0 0 0-92.306 30c-7.923 2.576-15.81 5.223-24.868 8.212ZM683.14 240.626v-169.9c-28.74 27.624-56.67 54.473-85.031 81.736 28.235 29.28 56.147 58.236 85.03 88.182Zm15.792 8.932c1.71.648 2.503 1.044 3.314 1.242 36.176 9.004 72.371 18.026 108.566 26.993 5.835 1.441 5.817 1.333 7.167-4.43 7.743-33.241 15.523-66.483 23.248-99.724.342-1.477.45-3.008.828-5.619-48.098 27.39-95.133 54.203-143.14 81.538ZM672.173 17.947c.793 2.052 1.26 3.457 1.873 4.772 4.538 9.778 9.31 19.448 13.542 29.352 1.602 3.745 3.439 3.925 6.842 2.809C727.996 43.877 761.616 33 795.2 22.07c3.367-1.098 6.699-2.34 10.03-3.511-.072-.198-.162-.414-.234-.612ZM832.277 39.61c-.342.144-.702.288-1.044.45.81 4.538 1.638 9.093 2.43 13.631 5.781 32.558 11.597 65.097 17.288 97.672.54 3.116 1.53 3.98 4.718 3.188 7.257-1.783 14.64-3.134 21.933-4.754 4.772-1.063 9.508-2.287 14.982-3.602A287119 287119 0 0 0 832.259 39.61Zm-231.269 97.312.648.594c.468-.306 1.009-.558 1.423-.955 25.786-24.652 51.537-49.322 77.36-73.92 2.07-1.963 1.908-3.583.828-5.888-4.61-9.742-9.058-19.574-13.614-29.353-.504-1.098-1.296-2.052-2.359-3.709-21.717 38.266-43.001 75.74-64.286 113.23m292.224 17.162c-14.01 2.989-26.597 5.582-39.076 8.517-1.332.306-2.81 2.54-3.187 4.124-7.87 33.025-15.613 66.105-23.338 99.167-.234 1.008-.252 2.07-.378 3.115.252.054.504.126.756.18 21.52-37.96 43.02-75.901 65.241-115.103Zm-96.015 129.293.108-.54c-.919-.36-1.801-.81-2.755-1.045-33.386-8.41-66.79-16.765-100.158-25.228-3.331-.847-5.618-.468-7.347 2.899-2.052 3.98-4.646 7.69-6.95 11.525-2.341 3.907-4.628 7.85-7.293 12.37h124.395Zm-131.184-4.466c4.862-8.14 8.913-15.45 13.523-22.383 2.45-3.692 2.18-5.943-.918-9.13-22.581-23.122-44.965-46.441-67.42-69.67-.954-.991-2.017-1.873-3.025-2.792-.252.216-.504.414-.756.63 19.358 34.124 38.698 68.249 58.596 103.363Z" vector-effect="non-scaling-stroke"/><path fill="transparent" stroke="transparent" d="M480 0h540v528H480z"/></g></svg>