<svg xmlns="http://www.w3.org/2000/svg" xml:space="preserve" width="1500" height="1500" fill="#fff" stroke="#fff" data-id="lg_I3ZGvWy2IVdSzCXZiR" data-version="1"><path fill="#000" stroke="transparent" d="M0 0h1500v1500H0z"/><g data-padding="20"><path fill="silver" stroke="null" stroke-width="1.783" d="M353.767 1114.07h-36.806V959.905l13.927 26.374h-62.271v-32.205h133.406v32.205H339.75l14.016-26.374Zm105.909 0H423.44V954.074h61.38q19.526 0 33.044 4.315 13.517 4.333 20.525 14.427t7.008 27.48q0 13.802-5.439 24.805t-17.44 17.387q-12.002 6.402-31.421 6.402l14.248-13.464 21.774 32.081q5.046 7.4 10.77 15.889 5.725 8.47 11.164 16.477 5.439 8.025 9.594 14.195h-41.853q-6.064-9.416-11.663-18.064-5.617-8.631-10.896-16.817l-25.91-40.854 21.88 16.727H453.06v-26.375h26.713q8.97 0 15.086-2.175 6.117-2.194 9.256-7.472t3.138-14.462q0-6.848-2.015-11.057t-5.439-6.562-7.632-3.139-8.47-.784h-50.271l26.25-23.13Zm157.426 0h-37.698V954.074h37.698Zm58.117 0h-37.02q4.261-12.894 8.916-27.142t8.809-27.052l18.064-54.854q4.815-14.925 8.738-26.873 3.941-11.948 7.865-24.074h47.577q4.03 12.572 7.9 24.466t8.702 26.481l17.833 54.979q4.387 13.231 8.916 27.266 4.548 14.016 8.703 26.802h-38.144q-3.603-12.786-7.401-26.196-3.816-13.41-7.294-25.412l-22.005-77.072h-2.693l-22.201 76.288q-3.603 12.447-7.58 26.089-3.976 13.624-7.685 26.303Zm80.104-33.437h-78.535l3.923-27.587h71.473Zm163.026 33.436H810.533V954.075h36.914v154.056l-12.787-26.25h83.69Zm100.986-56.422h-35.237l-32.99-62.736q-5.386-10.2-10.254-19.509-4.886-9.326-11.288-21.327h41.96q4.155 9.308 7.08 15.995 2.906 6.67 5.546 12.626 2.639 5.938 5.777 13.125l10.325 23.325h3.032l10.218-22.648q3.477-7.525 6.224-13.695t5.777-12.91q3.032-6.724 7.17-15.818h40.729q-5.385 10.325-10.77 20.596-5.386 10.254-10.433 20.133Zm.999 56.422h-37.02v-87.505h37.02Zm104.464 0h-40.962q5.956-11.11 12.126-22.719l12.786-24.056 21.435-40.177v8.649l-18.849-33.097-13.232-23.058q-6.74-11.734-14.587-25.536h41.96q4.94 9.433 9.648 18.403t8.97 17.173l11.002 20.97h2.8l10.54-21.095 8.648-17.262 9.095-18.19h40.605q-7.062 13.25-13.625 25.252t-11.947 22.094l-20.65 38.162v-9.88l21.095 35.113q7.847 12.911 14.98 24.752l14.747 24.502h-43.53q-4.939-9.077-9.308-17.155-4.387-8.078-8.524-15.496l-13.356-24.68h-2.8l-12.465 24.804q-4.03 7.74-8.025 15.64-3.977 7.917-8.577 16.887Z" font-family="Commissioner" font-size="125.835"/><path fill="silver" stroke="null" stroke-width="1.783" d="M355.087 1220.994q-2.336 0-4.19-.767-1.873-.75-3.175-2.122-1.32-1.373-2.015-3.228t-.695-4.048q0-2.978 1.23-5.26 1.23-2.301 3.406-3.603 2.176-1.284 5.065-1.284.98 0 1.908.125.91.143 1.747.375.82.231 1.534.517.695.267 1.213.553l-.232 2.407q-1.07-.642-2.087-1.034t-1.98-.571q-.98-.178-1.89-.178-2.121 0-3.78.963t-2.603 2.746q-.946 1.801-.946 4.262 0 1.64.5 3.085.481 1.444 1.462 2.55.963 1.106 2.407 1.73t3.353.624q.713 0 1.409-.09t1.39-.285 1.356-.517q.678-.32 1.32-.767l.196 2.372q-.589.375-1.284.642-.696.286-1.463.464-.766.16-1.551.25-.802.089-1.605.089Zm22.255-.303h-12.286v-19.652h2.496v19.26l-.927-1.838h10.717Zm6.081 0h-2.55v-19.652h2.55Zm7.49 0h-2.372v-19.652h2.247q1.765 2.479 3.388 4.78t3.21 4.529l4.262 6.01h.196v-15.32h2.372v19.653h-2.211q-1.462-2.07-3.067-4.352-1.623-2.282-3.55-5.01l-4.279-6.046h-.196Zm20.989 0h-2.532v-19.652h2.532Zm14.016.303q-2.318 0-4.19-.767-1.873-.75-3.175-2.122-1.32-1.373-2.015-3.228t-.695-4.048q0-2.978 1.23-5.26 1.23-2.301 3.406-3.603 2.176-1.284 5.065-1.284.98 0 1.908.125.927.143 1.748.375.838.231 1.533.517.696.267 1.213.553l-.214 2.407q-1.088-.642-2.104-1.034-1-.393-1.98-.571-.963-.178-1.89-.178-2.122 0-3.78.963-1.641.963-2.586 2.746-.945 1.801-.945 4.262 0 1.64.481 3.085.5 1.444 1.462 2.55.981 1.106 2.408 1.73 1.444.624 3.352.624.714 0 1.409-.09.713-.088 1.39-.285.696-.196 1.356-.517.678-.32 1.32-.767l.196 2.372q-.57.375-1.284.642-.695.286-1.444.464-.767.16-1.57.25t-1.605.089Zm10.771-.303h-2.532q.589-1.588 1.213-3.335.624-1.766 1.212-3.335l2.426-6.74 1.194-3.3q.535-1.462 1.07-2.942h3.281l1.053 2.978q.535 1.444 1.177 3.263l2.425 6.777q.588 1.623 1.195 3.334t1.177 3.3h-2.586q-.606-1.73-1.23-3.55-.625-1.836-1.178-3.44l-3.584-10.415h-.232l-3.602 10.307q-.588 1.694-1.23 3.531Zm11.467-4.94h-10.361l.232-1.962h9.95Zm19.027 4.94h-12.269v-19.652h2.497v19.26l-.945-1.838h10.717Zm16.317 0h-2.497v-19.295l1 1.854h-7.722v-2.211h15.942v2.211H482.5l.999-1.854Zm12.572 0h-2.443v-19.652h6.652q2.246 0 3.727.517 1.497.535 2.246 1.712t.75 3.085q0 1.605-.625 2.942t-2.086 2.14q-1.462.82-3.959.82l.802-1.087 3.086 3.87 1.551 1.925q.802 1.017 1.587 1.998.767.963 1.373 1.73h-2.924q-.981-1.249-1.873-2.408-.91-1.159-1.783-2.265l-3.53-4.547 1.533 1.23h-4.512v-2.05h3.727q1.73 0 2.853-.393 1.106-.41 1.659-1.301.553-.874.553-2.354 0-1.23-.393-1.944t-1.034-1.034q-.642-.34-1.391-.428-.731-.09-1.427-.09h-5.795l1.676-1.711Zm18.6 0h-2.533v-19.652h2.532Zm5.92 0h-2.532q.588-1.588 1.212-3.335.624-1.766 1.195-3.335l2.443-6.74q.642-1.82 1.195-3.3.535-1.462 1.07-2.942h3.281l1.052 2.978q.535 1.444 1.177 3.263l2.425 6.777q.571 1.623 1.195 3.334.607 1.712 1.177 3.3h-2.586q-.606-1.73-1.23-3.55-.624-1.836-1.177-3.44l-3.584-10.415h-.232l-3.602 10.307q-.607 1.694-1.23 3.531Zm11.448-4.94h-10.342l.214-1.962h9.95Zm19.046 4.94h-12.27v-19.652h2.497v19.26l-.945-1.838h10.718Zm8.773 0v-19.652h6.92q2.264 0 4.03.642 1.765.66 2.96 1.926 1.212 1.248 1.837 3.067.624 1.801.624 4.102 0 2.086-.553 3.87-.535 1.8-1.748 3.156-1.212 1.373-3.156 2.122-1.944.767-4.744.767Zm2.497-2.087h3.691q2.8 0 4.476-1.034 1.659-1.017 2.39-2.8t.731-4.03q0-1.73-.428-3.139-.446-1.408-1.32-2.407-.891-.999-2.282-1.552-1.391-.534-3.264-.534h-3.994Zm18.6 2.087h-2.533q.589-1.588 1.213-3.335.624-1.766 1.195-3.335l2.443-6.74q.642-1.82 1.194-3.3.535-1.462 1.07-2.942h3.282l1.052 2.978q.535 1.444 1.177 3.263l2.425 6.777q.57 1.623 1.195 3.334.606 1.712 1.177 3.3h-2.586q-.606-1.73-1.23-3.55-.625-1.836-1.177-3.44l-3.585-10.415h-.232l-3.602 10.307q-.606 1.694-1.23 3.531Zm11.448-4.94h-10.343l.232-1.962h9.933Zm14.302 4.94h-2.479v-19.295l.98 1.854h-7.72v-2.211h15.96v2.211h-7.74l.999-1.854Zm10.913 0h-2.514q.57-1.588 1.213-3.335.624-1.766 1.194-3.335l2.443-6.74q.642-1.82 1.177-3.3.553-1.462 1.088-2.942h3.281l1.052 2.978q.518 1.444 1.177 3.263l2.426 6.777q.57 1.623 1.194 3.334.607 1.712 1.177 3.3h-2.603q-.589-1.73-1.213-3.55-.624-1.836-1.177-3.44l-3.584-10.415h-.232l-3.602 10.307q-.606 1.694-1.23 3.531-.643 1.837-1.267 3.567Zm11.467-4.94h-10.343l.214-1.962h9.95Zm13.73 4.94h-2.389q.196-1.605.393-3.157l.428-3.406.802-6.473q.232-1.801.428-3.353.178-1.569.41-3.263h2.497q.856 2.086 1.658 4.03l1.587 3.888 3.121 7.632h.178l3.085-7.615 1.588-3.887q.784-1.926 1.622-4.048h2.497q.214 1.676.392 3.228.196 1.569.428 3.388l.803 6.544q.214 1.784.41 3.317t.392 3.175h-2.39l-.606-4.976q-.285-2.372-.535-4.404l-.713-5.867h-.178l-2.497 6.33-1.819 4.601q-.91 2.3-1.694 4.316h-1.694q-.5-1.267-1.106-2.765t-1.248-3.067l-1.248-3.05-2.586-6.365h-.178l-.714 5.849-.535 4.422q-.267 2.354-.588 4.976Zm25.484 0h-2.515q.571-1.588 1.213-3.335.624-1.766 1.195-3.335l2.443-6.74q.642-1.82 1.177-3.3.535-1.462 1.088-2.942h3.28l1.053 2.978q.517 1.444 1.177 3.263l2.425 6.777q.57 1.623 1.195 3.334.606 1.712 1.177 3.3h-2.604q-.588-1.73-1.212-3.55-.625-1.836-1.177-3.44l-3.585-10.415h-.232l-3.62 10.307q-.588 1.694-1.212 3.531-.642 1.837-1.266 3.567Zm11.466-4.94h-10.343l.214-1.962h9.95Zm9.13 4.94h-2.353v-19.652h2.246q1.748 2.479 3.389 4.78 1.622 2.3 3.21 4.529l4.244 6.01h.214v-15.32h2.371v19.653h-2.229q-1.444-2.07-3.067-4.352-1.605-2.282-3.53-5.01l-4.298-6.046h-.197Zm19.206 0h-2.532q.588-1.588 1.213-3.335.624-1.766 1.212-3.335l2.425-6.74 1.195-3.3q.535-1.462 1.07-2.942h3.281l1.053 2.978q.534 1.444 1.176 3.263l2.426 6.777q.588 1.623 1.195 3.334t1.176 3.3h-2.585q-.589-1.73-1.23-3.55-.625-1.836-1.178-3.44l-3.584-10.415h-.232l-3.602 10.307q-.589 1.694-1.23 3.531-.625 1.837-1.249 3.567Zm11.467-4.94h-10.361l.232-1.962h9.95Zm16.067 5.225q-2.568 0-4.512-.767-1.961-.767-3.281-2.14-1.32-1.39-1.997-3.228-.696-1.854-.696-4.03 0-2.96 1.23-5.243 1.213-2.3 3.442-3.602 2.23-1.284 5.243-1.284 1.034 0 1.997.125.981.143 1.837.392.856.232 1.587.518.731.267 1.249.535l-.214 2.407q-1.16-.642-2.23-1.034t-2.086-.571q-1.034-.178-1.997-.178-1.64 0-2.996.535-1.373.535-2.39 1.569-.998 1.034-1.551 2.514-.535 1.48-.535 3.335 0 1.676.481 3.139.464 1.462 1.445 2.567.998 1.106 2.514 1.712 1.534.625 3.638.625.767 0 1.534-.09.767-.07 1.533-.25.75-.16 1.48-.427t1.41-.642l.285 2.336q-.464.214-1.16.428t-1.551.374q-.856.179-1.801.268-.945.107-1.908.107Zm6.42-1.177-2.354.036v-9.024h2.354Zm16.709.892h-12.233v-19.652h12.197v2.122h-11.145l1.39-1.765v18.92l-1.248-1.765h11.039Zm-6.527-8.917h-3.816v-2.086h9.754v2.086Zm12.322 8.917h-2.371q.178-1.605.392-3.157.196-1.57.41-3.406l.82-6.473q.214-1.801.41-3.353l.41-3.263h2.515q.856 2.086 1.64 4.03l1.588 3.888 3.12 7.632h.197l3.085-7.615q.784-1.961 1.569-3.887t1.623-4.048h2.514q.196 1.676.392 3.228.179 1.569.41 3.388l.803 6.544q.214 1.784.41 3.317t.393 3.175h-2.39l-.606-4.976q-.286-2.372-.535-4.404l-.714-5.867h-.178l-2.496 6.33-1.82 4.601q-.909 2.3-1.694 4.316h-1.694q-.499-1.267-1.105-2.765t-1.249-3.067l-1.248-3.05-2.568-6.365h-.178l-.713 5.849-.535 4.422Zm36.95 0h-12.234v-19.652h12.198v2.122h-11.145l1.373-1.765v18.92l-1.23-1.765h11.038Zm-6.545-8.917h-3.798v-2.086h9.754v2.086Zm13.036 8.917h-2.372v-19.652h2.247q1.765 2.479 3.388 4.78t3.21 4.529l4.262 6.01h.196v-15.32h2.372v19.653h-2.211q-1.463-2.07-3.085-4.352-1.605-2.282-3.531-5.01l-4.298-6.046h-.178Zm25.946 0h-2.496v-19.295l.98 1.854h-7.721v-2.211h15.96v2.211h-7.74l1.017-1.854Zm22.915.303q-2.728 0-4.458-.945-1.712-.946-2.514-2.675-.803-1.712-.803-3.995v-12.34h2.479v12.09q0 1.784.517 3.068.535 1.266 1.694 1.961 1.16.678 3.085.678 1.944 0 3.103-.678 1.141-.695 1.658-1.961.5-1.284.5-3.085v-12.073h2.496v12.34q0 2.283-.82 3.995-.82 1.73-2.514 2.675-1.712.945-4.423.945Zm18.314 0q-1.23 0-2.46-.232-1.249-.232-2.319-.57-1.052-.34-1.694-.678l.232-2.354q.927.499 1.926.891.998.375 2.033.57 1.052.215 2.14.215 1.212 0 2.21-.339.982-.339 1.552-1.07.57-.749.57-1.944 0-1.052-.588-1.73t-1.711-1.176-2.729-.981q-1.872-.606-3.192-1.284-1.32-.696-2.015-1.712t-.695-2.586q0-1.516.713-2.728.731-1.213 2.158-1.908t3.548-.696q.892 0 1.748.125t1.658.321q.785.214 1.427.482t1.106.535l-.25 2.371q-.838-.57-1.783-.945-.928-.374-1.855-.553-.927-.196-1.712-.196-1.123 0-2.05.339-.946.321-1.516.999-.571.695-.571 1.765 0 .945.481 1.552.482.624 1.534 1.105 1.034.5 2.675 1.017 2.372.749 3.727 1.515t1.926 1.766q.57 1.016.57 2.46 0 1.623-.713 2.89-.695 1.266-2.211 2.015-1.498.749-3.87.749Zm13.036-.303h-2.532v-19.652h2.532Zm7.49 0h-2.354v-19.652h2.247q1.747 2.479 3.388 4.78 1.623 2.3 3.21 4.529l4.244 6.01h.214v-15.32h2.372v19.653h-2.23q-1.444-2.07-3.067-4.352-1.605-2.282-3.53-5.01l-4.298-6.046h-.196Zm27.712.285q-2.55 0-4.512-.767-1.944-.767-3.263-2.14-1.32-1.39-2.016-3.228-.677-1.854-.677-4.03 0-2.96 1.212-5.243 1.23-2.3 3.46-3.602 2.211-1.284 5.243-1.284 1.034 0 1.997.125.98.143 1.837.392.856.232 1.587.518.713.267 1.248.535l-.232 2.407q-1.14-.642-2.21-1.034t-2.105-.571q-1.017-.178-1.98-.178-1.64 0-3.013.535t-2.372 1.569-1.551 2.514q-.535 1.48-.535 3.335 0 1.676.463 3.139.482 1.462 1.462 2.567t2.515 1.712q1.533.625 3.62.625.785 0 1.551-.09.767-.07 1.516-.25.75-.16 1.48-.427t1.427-.642l.285 2.336q-.463.214-1.159.428t-1.551.374q-.856.179-1.801.268-.946.107-1.926.107Zm6.437-1.177-2.354.036v-9.024h2.354Zm19.045 1.177q-2.567 0-4.511-.767t-3.281-2.14q-1.32-1.39-1.998-3.228-.677-1.854-.677-4.03 0-2.96 1.212-5.243 1.23-2.3 3.442-3.602 2.23-1.284 5.243-1.284 1.034 0 2.015.125.963.143 1.837.392.856.232 1.569.518.731.267 1.248.535l-.214 2.407q-1.141-.642-2.211-1.034-1.088-.393-2.104-.571t-1.98-.178q-1.64 0-3.013.535t-2.372 1.569q-1.017 1.034-1.552 2.514-.552 1.48-.552 3.335 0 1.676.481 3.139t1.462 2.567 2.515 1.712q1.533.625 3.62.625.767 0 1.551-.09.767-.07 1.516-.25.749-.16 1.48-.427t1.427-.642l.285 2.336q-.464.214-1.16.428t-1.55.374q-.857.179-1.802.268-.945.107-1.926.107Zm6.438-1.177-2.354.036v-9.024h2.354Zm16.691.892h-12.233v-19.652h12.216v2.122h-11.146l1.373-1.765v18.92l-1.248-1.765h11.038Zm-6.526-8.917H961.7v-2.086h9.755v2.086Zm13.017 8.917h-2.371v-19.652h2.247q1.765 2.479 3.388 4.78 1.64 2.3 3.21 4.529l4.262 6.01h.214v-15.32h2.371v19.653h-2.229q-1.462-2.07-3.067-4.352t-3.549-5.01l-4.28-6.046h-.196Zm30.655 0h-12.233v-19.652h12.197v2.122H997.99l1.373-1.765v18.92l-1.23-1.765h11.038Zm-6.545-8.917h-3.798v-2.086h9.754v2.086Zm13.09 8.917h-2.426v-19.652h6.634q2.247 0 3.745.517 1.498.535 2.247 1.712t.749 3.085q0 1.605-.625 2.942t-2.086 2.14q-1.462.82-3.959.82l.785-1.087 3.103 3.87q.73.909 1.533 1.925.82 1.017 1.587 1.998.785.963 1.391 1.73h-2.924l-1.89-2.408q-.892-1.159-1.784-2.265l-3.53-4.547 1.533 1.23h-4.512v-2.05h3.745q1.712 0 2.836-.393 1.123-.41 1.676-1.301.535-.874.535-2.354 0-1.23-.392-1.944t-1.035-1.034q-.624-.34-1.373-.428t-1.444-.09h-5.778l1.658-1.711Zm16.816 0h-2.515l1.195-3.335q.624-1.766 1.213-3.335l2.443-6.74q.642-1.82 1.177-3.3.535-1.462 1.07-2.942h3.28q.536 1.516 1.07 2.978.518 1.444 1.16 3.263l2.425 6.777q.589 1.623 1.195 3.334.624 1.712 1.177 3.3h-2.586q-.588-1.73-1.213-3.55-.624-1.836-1.176-3.44l-3.585-10.415h-.232l-3.62 10.307q-.588 1.694-1.23 3.531-.624 1.837-1.248 3.567Zm11.466-4.94h-10.343l.214-1.962h9.95Zm14.302 4.94h-2.497v-19.295l.999 1.854h-7.74v-2.211h15.96v2.211h-7.72l.998-1.854Zm12.697 0h-2.533v-19.652h2.533Zm13.766 0h-3.406q-.517-1.48-1.123-3.157-.589-1.658-1.106-3.085l-2.193-6.152q-.375-1.07-.82-2.3l-.91-2.515q-.446-1.284-.874-2.443h2.764q.714 2.104 1.534 4.494.838 2.407 1.551 4.511l2.764 8.06h.232l2.8-8.095q.731-2.158 1.534-4.476.802-2.3 1.551-4.494h2.675q-.428 1.177-.874 2.443t-.891 2.497q-.428 1.23-.803 2.282l-2.211 6.206q-.5 1.427-1.088 3.067-.57 1.64-1.106 3.157Zm22.523 0h-12.233v-19.652h12.197v2.122h-11.145l1.373-1.765v18.92l-1.23-1.765h11.038Zm-6.527-8.917h-3.816v-2.086h9.755v2.086Zm16.71 8.917h-2.533q.589-1.588 1.213-3.335.624-1.766 1.212-3.335l2.426-6.74 1.194-3.3q.535-1.462 1.07-2.942h3.282q.535 1.516 1.07 2.978.517 1.444 1.159 3.263l2.425 6.777q.588 1.623 1.195 3.334t1.177 3.3h-2.586q-.589-1.73-1.23-3.55-.625-1.836-1.177-3.44l-3.567-10.415h-.25l-3.602 10.307q-.588 1.694-1.23 3.531-.624 1.837-1.249 3.567Zm11.466-4.94h-10.36l.23-1.962h9.952Zm9.344 4.94h-2.55v-19.652h2.55Z" font-family="Commissioner" font-size="15.453"/><g transform="translate(91.455 -121.022)scale(3.3347)"><linearGradient id="a" x1="0" x2="1" y1="0" y2="0" fill="#fff" stroke="#fff" gradientUnits="objectBoundingBox"><stop offset="0%" stop-color="#0f3054"/><stop offset="49.8%" stop-color="#3b8dcb"/><stop offset="100%" stop-color="#0f3054"/></linearGradient><path fill="url(#a)" stroke="none" d="M282.443 354.65c-13.9 0-27.8-.04-41.7.04-2 .01-3.13-.62-4.13-2.39-13.85-24.55-27.75-49.08-41.71-73.57-.96-1.69-.87-2.94.06-4.56 14.04-24.54 28.04-49.11 41.98-73.71.96-1.69 2.06-2.25 3.96-2.25q41.82.074 83.64 0c1.87 0 2.96.52 3.93 2.24 13.74 24.33 27.55 48.63 41.43 72.87 1.32 2.3 1.31 4.03 0 6.33a13078 13078 0 0 0-40.99 71.98c-1.27 2.25-2.67 3.1-5.28 3.07-13.73-.13-27.46-.06-41.2-.06Zm-28.77-123.73v97.44c27.62-15.68 54.81-31.12 82.46-46.82-27.73-17.02-54.87-33.68-82.46-50.62m2.87-3.45c27.05 16.6 53.56 32.87 80.67 49.51-.29-2.19-.42-3.65-.68-5.08-3.8-21.2-7.62-42.39-11.41-63.59-.53-2.97-.55-3.04-3.52-2.07-17.09 5.55-34.17 11.1-51.26 16.66-4.4 1.43-8.78 2.9-13.81 4.56Zm-7.86 99v-94.35c-15.96 15.34-31.47 30.25-47.22 45.39 15.68 16.26 31.18 32.34 47.22 48.97Zm8.77 4.96c.95.36 1.39.58 1.84.69 20.09 5 40.19 10.01 60.29 14.99 3.24.8 3.23.74 3.98-2.46 4.3-18.46 8.62-36.92 12.91-55.38.19-.82.25-1.67.46-3.12-26.71 15.21-52.83 30.1-79.49 45.28Zm-14.86-128.62c.44 1.14.7 1.92 1.04 2.65 2.52 5.43 5.17 10.8 7.52 16.3.89 2.08 1.91 2.18 3.8 1.56 18.64-6.11 37.31-12.15 55.96-18.22 1.87-.61 3.72-1.3 5.57-1.95-.04-.11-.09-.23-.13-.34Zm88.91 12.03c-.19.08-.39.16-.58.25.45 2.52.91 5.05 1.35 7.57 3.21 18.08 6.44 36.15 9.6 54.24.3 1.73.85 2.21 2.62 1.77 4.03-.99 8.13-1.74 12.18-2.64 2.65-.59 5.28-1.27 8.32-2-11.28-19.94-22.39-39.57-33.5-59.19Zm-128.43 54.04.36.33c.26-.17.56-.31.79-.53 14.32-13.69 28.62-27.39 42.96-41.05 1.15-1.09 1.06-1.99.46-3.27-2.56-5.41-5.03-10.87-7.56-16.3-.28-.61-.72-1.14-1.31-2.06-12.06 21.25-23.88 42.06-35.7 62.88m162.28 9.53c-7.78 1.66-14.77 3.1-21.7 4.73-.74.17-1.56 1.41-1.77 2.29-4.37 18.34-8.67 36.71-12.96 55.07-.13.56-.14 1.15-.21 1.73.14.03.28.07.42.1 11.95-21.08 23.89-42.15 36.23-63.92Zm-53.32 71.8.06-.3c-.51-.2-1-.45-1.53-.58-18.54-4.67-37.09-9.31-55.62-14.01-1.85-.47-3.12-.26-4.08 1.61-1.14 2.21-2.58 4.27-3.86 6.4-1.3 2.17-2.57 4.36-4.05 6.87h69.08Zm-72.85-2.48c2.7-4.52 4.95-8.58 7.51-12.43 1.36-2.05 1.21-3.3-.51-5.07-12.54-12.84-24.97-25.79-37.44-38.69-.53-.55-1.12-1.04-1.68-1.55-.14.12-.28.23-.42.35 10.75 18.95 21.49 37.9 32.54 57.4Z" transform="translate(-88.33 -78.25)" vector-effect="non-scaling-stroke"/></g><path fill="transparent" stroke="transparent" stroke-width="1.852" d="M250 261.111h1000v977.778H250z"/></g></svg>